<svg width="37" height="37" viewBox="0 0 37 37" fill="none" xmlns="http://www.w3.org/2000/svg">
<rect width="37" height="37" fill="#8B1490"/>
<path d="M17.5443 25.542V18.864H16.4103V16.434H17.5443V16.056C17.5443 15.48 17.6463 14.976 17.8503 14.544C18.0543 14.1 18.3003 13.758 18.5883 13.518C18.8883 13.278 19.2423 13.086 19.6503 12.942C20.0703 12.798 20.4423 12.708 20.7663 12.672C21.1023 12.624 21.4443 12.6 21.7923 12.6C22.2003 12.6 22.5123 12.618 22.7283 12.654V15.282C22.6323 15.258 22.4643 15.246 22.2243 15.246C21.1803 15.246 20.6583 15.546 20.6583 16.146V16.434H22.3683V18.864H20.6583V25.542H17.5443Z" fill="white"/>
<path d="M17.5443 25.542V18.864H16.4103V16.434H17.5443V16.056C17.5443 15.48 17.6463 14.976 17.8503 14.544C18.0543 14.1 18.3003 13.758 18.5883 13.518C18.8883 13.278 19.2423 13.086 19.6503 12.942C20.0703 12.798 20.4423 12.708 20.7663 12.672C21.1023 12.624 21.4443 12.6 21.7923 12.6C22.2003 12.6 22.5123 12.618 22.7283 12.654V15.282C22.6323 15.258 22.4643 15.246 22.2243 15.246C21.1803 15.246 20.6583 15.546 20.6583 16.146V16.434H22.3683V18.864H20.6583V25.542H17.5443Z" fill="white"/>
</svg>
