<svg width="24" height="24" viewBox="0 0 24 24" fill="none" xmlns="http://www.w3.org/2000/svg">
<path d="M10.7735 19V12.322H9.63948V9.892H10.7735V9.514C10.7735 8.938 10.8755 8.434 11.0795 8.002C11.2835 7.558 11.5295 7.216 11.8175 6.976C12.1175 6.736 12.4715 6.544 12.8795 6.4C13.2995 6.256 13.6715 6.166 13.9955 6.13C14.3315 6.082 14.6735 6.058 15.0215 6.058C15.4295 6.058 15.7415 6.076 15.9575 6.112V8.74C15.8615 8.716 15.6935 8.704 15.4535 8.704C14.4095 8.704 13.8875 9.004 13.8875 9.604V9.892H15.5975V12.322H13.8875V19H10.7735Z" fill="#FFD441"/>
<path d="M10.7735 19V12.322H9.63948V9.892H10.7735V9.514C10.7735 8.938 10.8755 8.434 11.0795 8.002C11.2835 7.558 11.5295 7.216 11.8175 6.976C12.1175 6.736 12.4715 6.544 12.8795 6.4C13.2995 6.256 13.6715 6.166 13.9955 6.13C14.3315 6.082 14.6735 6.058 15.0215 6.058C15.4295 6.058 15.7415 6.076 15.9575 6.112V8.74C15.8615 8.716 15.6935 8.704 15.4535 8.704C14.4095 8.704 13.8875 9.004 13.8875 9.604V9.892H15.5975V12.322H13.8875V19H10.7735Z" fill="#FFD441"/>
<rect x="0.5" y="0.5" width="23" height="23" stroke="#FFD441"/>
</svg>
