<svg width="579" height="737" viewBox="0 0 579 737" fill="none" xmlns="http://www.w3.org/2000/svg">
<mask id="mask0" style="mask-type:alpha" maskUnits="userSpaceOnUse" x="234" y="134" width="345" height="602">
<rect x="234.373" y="134.407" width="344.475" height="600.679" fill="#C4C4C4"/>
</mask>
<g mask="url(#mask0)">
<path d="M739.682 449.569L754.888 400.026L640.781 162.363L532.512 214.345L607.316 370.147L406.622 466.504L331.818 310.703L223.549 362.686L314.835 552.816L346.524 537.601L271.72 381.8L319.252 358.978L394.056 514.78L655.486 389.261L580.682 233.46L625.574 211.906L723.2 415.241L369.346 585.134L354.139 634.677L469.514 874.981L577.783 822.999L501.712 664.557L702.405 568.199L778.477 726.641L886.746 674.659L795.46 484.528L763.771 499.743L838.575 655.544L793.682 677.098L718.879 521.296L457.449 646.815L532.253 802.616L484.721 825.437L385.828 619.463L739.682 449.569Z" fill="#6C1C71" fill-opacity="0.5"/>
</g>
</svg>
