<svg width="330" height="533" viewBox="0 0 330 533" fill="none" xmlns="http://www.w3.org/2000/svg">
<mask id="mask0" style="mask-type:alpha" maskUnits="userSpaceOnUse" x="9" y="-26" width="321" height="559">
<rect x="9.72018" y="-25.1426" width="320" height="558" fill="white"/>
</mask>
<g mask="url(#mask0)">
<path d="M479.127 267.628L493.253 221.605L387.253 0.827583L286.676 49.1166L356.165 193.848L169.731 283.359L100.242 138.628L-0.334137 186.917L84.4658 363.538L113.903 349.405L44.4141 204.673L88.5692 183.473L158.058 328.205L400.913 211.605L331.424 66.8732L373.126 46.8508L463.816 235.738L135.103 393.56L120.977 439.584L228.155 662.814L328.731 614.525L258.065 467.34L444.499 377.829L515.165 525.014L615.742 476.724L530.942 300.103L501.504 314.236L570.993 458.968L529.291 478.99L459.802 334.258L216.947 450.859L286.436 595.59L242.281 616.79L150.414 425.45L479.127 267.628Z" fill="#6C1C71" fill-opacity="0.5"/>
</g>
</svg>
