<svg width="39" height="48" viewBox="0 0 39 48" fill="none" xmlns="http://www.w3.org/2000/svg">
<path d="M20.2605 21.0781V11.9623H24.0471C24.9311 11.9623 25.645 12.2555 26.189 12.842C26.7415 13.4285 27.0177 14.1807 27.0177 15.0987C27.0177 16.0251 26.7415 16.7858 26.189 17.3808C25.645 17.9673 24.9311 18.2605 24.0471 18.2605H22.4917V21.0781H20.2605ZM22.4917 16.3481H23.5881C23.9621 16.3481 24.2469 16.2334 24.4423 16.0039C24.6463 15.7744 24.7483 15.4726 24.7483 15.0987C24.7483 14.7247 24.6506 14.4272 24.4551 14.2062C24.2596 13.9852 23.9834 13.8747 23.6264 13.8747H22.4917V16.3481Z" fill="black"/>
<path d="M20.2605 21.0781V11.9623H24.0471C24.9311 11.9623 25.645 12.2555 26.189 12.842C26.7415 13.4285 27.0177 14.1807 27.0177 15.0987C27.0177 16.0251 26.7415 16.7858 26.189 17.3808C25.645 17.9673 24.9311 18.2605 24.0471 18.2605H22.4917V21.0781H20.2605ZM22.4917 16.3481H23.5881C23.9621 16.3481 24.2469 16.2334 24.4423 16.0039C24.6463 15.7744 24.7483 15.4726 24.7483 15.0987C24.7483 14.7247 24.6506 14.4272 24.4551 14.2062C24.2596 13.9852 23.9834 13.8747 23.6264 13.8747H22.4917V16.3481Z" fill="#FFD441"/>
<path d="M37.7479 0.000242854H5.35022C2.41424 0.000242854 0 2.36965 0 5.30603V42.5093C0 42.5277 0.0130433 42.546 0.0142662 42.564C0.0134509 42.6072 0.0191574 42.641 0.0191574 42.6842C0.0264943 45.623 2.4118 48.0014 5.35063 47.9998H35.3524C35.8138 48.0104 36.1965 47.6452 36.2083 47.1842V39.026H37.7479C38.2113 39.0337 38.5949 38.6673 38.6083 38.2038V0.815452C38.5945 0.353636 38.2101 -0.0107624 37.7479 0.000242854ZM1.66955 5.30603C1.66955 3.29043 3.33461 1.66979 5.35022 1.66979H7.51297V37.3564H5.35063C3.98067 37.3568 2.66329 37.8826 1.66955 38.8254V5.30603ZM34.5388 46.3302H5.35063C3.33339 46.3302 1.69849 44.6949 1.69849 42.6781C1.69849 40.6609 3.33339 39.026 5.35063 39.026H34.5388V46.3302ZM36.9388 37.3564H9.18252V1.66979H36.9388V37.3564Z" fill="#FFD441"/>
<path d="M32.7804 30.7827H13.3552C12.8942 30.7827 12.5204 31.1561 12.5204 31.6175C12.5204 32.0785 12.8942 32.4523 13.3552 32.4523H32.7804C33.2414 32.4523 33.6152 32.0785 33.6152 31.6175C33.6152 31.1561 33.2414 30.7827 32.7804 30.7827Z" fill="#FFD441"/>
<path d="M22.7476 27.8303C28.8971 27.8303 33.8822 22.8453 33.8822 16.6957C33.8822 10.5458 28.8971 5.56079 22.7476 5.56079C16.5977 5.56079 11.6127 10.5458 11.6127 16.6957C11.6196 22.8424 16.6005 27.8233 22.7476 27.8303ZM22.7476 7.23034C27.9751 7.23034 32.2126 11.4682 32.2126 16.6957C32.2126 21.9233 27.9751 26.1607 22.7476 26.1607C17.5201 26.1607 13.2822 21.9233 13.2822 16.6957C13.2879 11.4707 17.5221 7.23605 22.7476 7.23034Z" fill="#FFD441"/>
<rect x="20.2435" y="19.8262" width="2.29565" height="3.23478" fill="#FFD441"/>
<rect x="25.7739" y="19.0957" width="2.29565" height="7.40869" transform="rotate(90 25.7739 19.0957)" fill="#FFD441"/>
</svg>
