<svg width="47" height="44" viewBox="0 0 47 44" fill="none" xmlns="http://www.w3.org/2000/svg">
<path d="M46.0395 5.26502H32.9423C32.4784 2.28768 29.9035 0 26.7985 0H20.2024C17.0973 0 14.5235 2.28768 14.0587 5.26502H0.960466C0.42925 5.26502 0 5.69533 0 6.22549V24.6137V43.0018C0 43.5329 0.42925 43.9623 0.960466 43.9623H46.0395C46.5706 43.9623 47 43.533 47 43.0018V24.6126V6.22549C46.9999 5.69439 46.5706 5.26502 46.0395 5.26502ZM20.2013 1.92081H26.7975C28.8413 1.92081 30.5565 3.35189 30.9945 5.26502H16.0044C16.4414 3.35189 18.1586 1.92081 20.2013 1.92081ZM1.92081 7.18583H14.9363H32.0634H45.0789V23.6532H26.7014V22.7101C26.7014 22.179 26.2722 21.7496 25.7409 21.7496H21.2587C20.7276 21.7496 20.2982 22.1789 20.2982 22.7101V23.6522H1.92081V7.18583ZM22.2193 24.6126V23.6704H24.7807V24.6126V27.0338H22.2193V24.6126ZM45.0791 42.0403H1.92081V25.5731H20.2983V27.9942C20.2983 28.5253 20.7276 28.9547 21.2588 28.9547H25.7411C26.2722 28.9547 26.7015 28.5255 26.7015 27.9942V25.5731H45.0791V42.0403Z" fill="#FFD441"/>
</svg>
