<svg width="52" height="49" viewBox="0 0 52 49" fill="none" xmlns="http://www.w3.org/2000/svg">
<path d="M46.1352 24.5594L40.4778 15.8231C40.0394 15.146 39.296 14.7417 38.4893 14.7417H13.5285C12.723 14.7417 11.9803 15.145 11.5417 15.8204L5.86676 24.5578C5.28684 25.4505 5.37642 26.6293 6.08462 27.4241L24.23 47.7955C24.6791 48.2997 25.3238 48.5889 25.999 48.5889C25.9991 48.5889 25.999 48.5889 25.9991 48.5889C26.6742 48.5889 27.3191 48.2998 27.7682 47.7956L45.9156 27.423C46.6228 26.6291 46.7131 25.4516 46.1352 24.5594ZM37.3432 16.7728L32.5854 24.13L27.8248 16.7728H37.3432ZM30.7188 24.9844H21.2792L25.999 17.6903L30.7188 24.9844ZM24.1732 16.773L19.4257 24.11L14.6797 16.773H24.1732ZM12.8018 17.6094L17.5721 24.9844H8.01177L12.8018 17.6094ZM8.44077 27.0156H18.6625L24.0673 44.559L8.44077 27.0156ZM25.999 43.9302L20.7879 27.0156H31.2101L25.999 43.9302ZM27.9306 44.5596L33.3356 27.0157H43.5582L27.9306 44.5596ZM34.452 24.9844L39.2181 17.6145L43.9904 24.9844H34.452Z" fill="#FFD441"/>
<path d="M3.0807 24.9844H1.01562C0.454797 24.9844 0 25.4391 0 26C0 26.5609 0.454797 27.0156 1.01562 27.0156H3.0807C3.64152 27.0156 4.09632 26.5609 4.09632 26C4.09632 25.4391 3.64152 24.9844 3.0807 24.9844Z" fill="#FFD441"/>
<path d="M50.9844 24.9844H48.9193C48.3585 24.9844 47.9037 25.4391 47.9037 26C47.9037 26.5609 48.3585 27.0156 48.9193 27.0156H50.9844C51.5452 27.0156 52 26.5609 52 26C52 25.4391 51.5452 24.9844 50.9844 24.9844Z" fill="#FFD441"/>
<path d="M44.3976 7.62045C44.0009 7.22385 43.358 7.22385 42.9612 7.62045L39.5876 10.9941C39.191 11.3907 39.191 12.0337 39.5876 12.4303C39.7861 12.6287 40.046 12.7278 40.3059 12.7278C40.5659 12.7278 40.8257 12.6286 41.024 12.4303L44.3976 9.05675C44.7942 8.66015 44.7942 8.01715 44.3976 7.62045Z" fill="#FFD441"/>
<path d="M12.4562 10.9761L9.08273 7.60238C8.68623 7.20578 8.04334 7.20578 7.64633 7.60238C7.24973 7.99898 7.24973 8.64208 7.64633 9.03868L11.0199 12.4123C11.2183 12.6106 11.4782 12.7098 11.7381 12.7098C11.998 12.7098 12.2579 12.6105 12.4562 12.4123C12.8528 12.0158 12.8528 11.3726 12.4562 10.9761Z" fill="#FFD441"/>
<path d="M26.0258 0C25.465 0 25.0102 0.454695 25.0102 1.01562V7.63425C25.0102 8.19518 25.4649 8.64987 26.0258 8.64987C26.5866 8.64987 27.0414 8.19518 27.0414 7.63425V1.01562C27.0414 0.454797 26.5866 0 26.0258 0Z" fill="#FFD441"/>
<path d="M26.7433 10.352C26.5545 10.1631 26.2925 10.0544 26.0254 10.0544C25.7583 10.0544 25.4962 10.1631 25.3073 10.352C25.1184 10.5409 25.0098 10.803 25.0098 11.0701C25.0098 11.3382 25.1183 11.5992 25.3073 11.7881C25.4962 11.978 25.7583 12.0857 26.0254 12.0857C26.2925 12.0857 26.5545 11.978 26.7433 11.7881C26.9333 11.5992 27.041 11.3372 27.041 11.0701C27.041 10.803 26.9333 10.541 26.7433 10.352Z" fill="#FFD441"/>
</svg>
