<svg width="188" height="56" viewBox="0 0 188 56" fill="none" xmlns="http://www.w3.org/2000/svg">
<path d="M37.6702 1.40384V37.6702H1.40384V1.40384H37.6702ZM39.074 0H0V39.074H39.074V0Z" fill="white"/>
<path d="M27.3752 20.239L28.7791 18.7181V8.18921H23.9825V15.0915H15.0914V8.18921H10.2949V16.6123H11.6988V9.71004H13.8046V16.6123H25.3864V9.71004H27.3752V18.7181H11.6988L10.2949 20.239V30.8849H15.0914V23.8656H23.9825V30.8849H28.7791V22.4617H27.3752V29.364H25.3864V22.4617H13.8046V29.364H11.6988V20.239H27.3752Z" fill="white"/>
<path d="M53.5806 0H56.1544V7.95518H65.5134V0H67.9702V18.0162H65.5134V10.061H56.1544V18.0162H53.5806V0Z" fill="white"/>
<path d="M77.4462 4.79663C81.0728 4.79663 83.0617 7.48737 83.0617 10.88C83.0617 11.231 83.0617 11.5819 82.9447 11.9329H73.4686C73.5856 14.7406 75.5744 16.2615 77.9142 16.2615C79.318 16.2615 80.7219 15.6765 81.7748 14.7406L82.8277 16.6124C81.5408 17.7823 79.552 18.4843 77.7972 18.4843C73.7026 18.4843 70.8949 15.5596 70.8949 11.699C70.8949 7.48739 73.7026 4.79663 77.4462 4.79663ZM80.4879 10.0611C80.3709 7.83832 79.0841 6.66845 77.3292 6.66845C75.4574 6.66845 73.9366 7.95531 73.5856 10.0611H80.4879Z" fill="white"/>
<path d="M85.7523 16.0273C87.6241 13.5706 87.7412 9.47602 87.7412 7.48722V5.14746H96.5153V16.0273H98.3871V21.1748H96.1643V18.1332H86.5713V21.1748H84.2315V16.0273H85.7523ZM94.0585 16.0273V7.13624H90.1979V7.83817C90.1979 9.82697 89.9639 13.4536 88.3261 16.0273H94.0585Z" fill="white"/>
<path d="M106.225 4.79663C109.852 4.79663 111.841 7.48737 111.841 10.88C111.841 11.231 111.841 11.5819 111.724 11.9329H102.248C102.365 14.7406 104.354 16.2615 106.693 16.2615C108.097 16.2615 109.501 15.6765 110.554 14.7406L111.607 16.6124C110.32 17.7823 108.331 18.4843 106.576 18.4843C102.482 18.4843 99.674 15.5596 99.674 11.699C99.674 7.48739 102.482 4.79663 106.225 4.79663ZM109.267 10.0611C109.15 7.83832 107.863 6.66845 106.108 6.66845C104.237 6.66845 102.716 7.95531 102.365 10.0611H109.267Z" fill="white"/>
<path d="M113.128 15.9104C114.999 15.6764 116.052 13.6876 116.052 9.00811V5.03052H124.709V18.0162H122.253V7.13629H118.392V9.1251C118.392 14.9745 116.871 18.0162 113.128 18.2502V15.9104Z" fill="white"/>
<path d="M122.253 5.03052H124.709V9.71004H127.283C129.974 9.71004 131.963 10.8799 131.963 13.9216C131.963 16.3784 130.442 18.0162 127.166 18.0162H122.136V5.03052H122.253ZM126.932 16.2614C128.687 16.2614 129.506 15.3255 129.506 13.9216C129.506 12.5178 128.687 11.5819 126.932 11.5819H124.709V16.2614H126.932Z" fill="white"/>
<path d="M134.419 5.03052H136.876V10.295H138.748L142.258 5.03052H145.065L140.737 11.2309L145.533 18.0162H142.609L138.748 12.4008H136.876V18.0162H134.419V5.03052Z" fill="white"/>
<path d="M153.138 4.79663C156.998 4.79663 160.157 7.60437 160.157 11.582C160.157 15.5596 156.998 18.3673 153.138 18.3673C149.277 18.3673 146.118 15.4426 146.118 11.582C146.235 7.60437 149.277 4.79663 153.138 4.79663ZM153.138 16.1445C155.594 16.1445 157.583 14.1557 157.583 11.465C157.583 8.77424 155.594 6.90244 153.138 6.90244C150.681 6.90244 148.692 8.77424 148.692 11.465C148.692 14.2727 150.681 16.1445 153.138 16.1445Z" fill="white"/>
<path d="M53.5806 26.0886H55.9204V33.8098C55.9204 34.5118 55.9204 35.4477 55.8034 35.5647C55.9204 35.3307 56.5053 34.3948 56.9733 33.8098L62.5887 26.0886H65.0455V39.0743H62.5887V31.3531C62.5887 30.7681 62.7057 29.8322 62.7057 29.5983C62.5887 29.8322 62.0038 30.6512 61.5358 31.3531L55.9204 39.0743H53.5806V26.0886Z" fill="white"/>
<path d="M74.2875 26.0886H85.6354V39.0743H83.1786V28.1944H76.8613V39.0743H74.4045V26.0886H74.2875Z" fill="white"/>
<path d="M95.8133 31.0022H96.5153V30.7683C96.5153 28.6625 95.2284 27.9605 93.7076 27.9605C92.4207 27.9605 91.1338 28.4285 90.0809 29.2474L89.028 27.3756C90.0809 26.5567 92.0697 25.8547 93.8245 25.8547C97.1002 25.8547 98.972 27.6096 98.972 30.8852V39.0744H96.6323V37.7875C96.6323 37.2026 96.7492 36.7347 96.7492 36.7347C96.0473 38.2555 94.4095 39.4254 92.5377 39.4254C90.3149 39.4254 88.2091 38.0215 88.2091 35.5648C88.0921 31.4702 93.1226 31.0022 95.8133 31.0022ZM93.0056 37.4366C95.2284 37.4366 96.5153 35.2138 96.5153 33.342V32.874H95.9303C94.0585 32.874 90.6659 32.991 90.6659 35.4478C90.5489 36.3837 91.3678 37.4366 93.0056 37.4366Z" fill="white"/>
<path d="M102.365 26.0885H104.704V27.2584C104.704 27.8433 104.587 28.1943 104.587 28.1943C105.406 26.6734 107.044 25.7375 108.916 25.7375C112.426 25.7375 114.648 28.5452 114.648 32.5228C114.648 36.6174 112.192 39.3081 108.799 39.3081C107.161 39.3081 105.64 38.4892 104.821 37.0854C104.821 37.0854 104.938 37.5533 104.938 38.2553V44.1047H102.482V26.0885H102.365ZM108.448 37.2024C110.554 37.2024 112.192 35.5645 112.192 32.6398C112.192 29.8321 110.671 27.9603 108.565 27.9603C106.576 27.9603 104.821 29.3642 104.821 32.6398C104.821 34.9796 106.108 37.2024 108.448 37.2024Z" fill="white"/>
<path d="M120.381 28.3114H115.818V26.0886H127.283V28.1944H122.721V39.0743H120.264V28.3114H120.381Z" fill="white"/>
<path d="M129.506 26.0886H131.963V31.3531H138.514V26.0886H140.971V39.0743H138.514V33.5759H131.963V39.0743H129.506V26.0886Z" fill="white"/>
<path d="M150.33 25.8547C153.956 25.8547 155.945 28.5455 155.945 31.9381C155.945 32.2891 155.945 32.6401 155.828 32.991H146.352C146.469 35.7987 148.458 37.3196 150.798 37.3196C152.202 37.3196 153.605 36.7346 154.658 35.7987L155.711 37.6705C154.424 38.8404 152.436 39.5424 150.681 39.5424C146.586 39.5424 143.778 36.6177 143.778 32.7571C143.778 28.5455 146.586 25.8547 150.33 25.8547ZM153.372 31.1192C153.255 28.8964 151.968 27.7266 150.213 27.7266C148.341 27.7266 146.82 29.0134 146.469 31.1192H153.372Z" fill="white"/>
<path d="M158.636 26.0885H160.976V27.2584C160.976 27.8433 160.859 28.1943 160.859 28.1943C161.678 26.6734 163.316 25.7375 165.187 25.7375C168.697 25.7375 170.92 28.5452 170.92 32.5228C170.92 36.6174 168.463 39.3081 165.07 39.3081C163.433 39.3081 161.912 38.4892 161.093 37.0854C161.093 37.0854 161.21 37.5533 161.21 38.2553V44.1047H158.753V26.0885H158.636ZM164.719 37.2024C166.825 37.2024 168.463 35.5645 168.463 32.6398C168.463 29.8321 166.942 27.9603 164.836 27.9603C162.848 27.9603 161.093 29.3642 161.093 32.6398C161.093 34.9796 162.38 37.2024 164.719 37.2024Z" fill="white"/>
<path d="M173.727 26.0886H176.184V30.7681H178.758C181.449 30.7681 183.437 31.938 183.437 34.9797C183.437 37.4365 181.917 39.0743 178.758 39.0743H173.727V26.0886ZM178.407 37.3195C180.162 37.3195 180.981 36.3836 180.981 34.9797C180.981 33.5759 180.162 32.64 178.407 32.64H176.301V37.3195H178.407ZM185.543 26.0886H188V39.0743H185.543V26.0886Z" fill="white"/>
<path d="M53.5806 49.6033H54.2826V51.9431H55.2185C55.3354 50.5392 56.5053 49.4863 57.9092 49.4863C59.43 49.4863 60.5999 50.6562 60.5999 52.177C60.5999 53.6979 59.43 54.9848 57.9092 54.9848C56.5053 54.9848 55.4524 53.9319 55.3354 52.528H54.2826V54.8678H53.5806V49.6033ZM57.7922 54.2828C58.8451 54.2828 59.664 53.3469 59.664 52.177C59.664 51.0072 58.8451 50.1883 57.7922 50.1883C56.7393 50.1883 55.9204 51.1241 55.9204 52.177C55.9204 53.3469 56.7393 54.2828 57.7922 54.2828Z" fill="white"/>
<path d="M61.5358 49.603H63.5246C64.4605 49.603 65.1624 50.3049 65.1624 51.2409C65.1624 52.2937 64.4605 52.8787 63.5246 52.8787H62.3547V54.8675H61.6528V49.603H61.5358ZM63.4076 52.2937C63.9925 52.2937 64.4605 51.9428 64.4605 51.2409C64.4605 50.6559 64.1095 50.188 63.4076 50.188H62.3547V52.2937H63.4076Z" fill="white"/>
<path d="M66.0984 49.603H66.8003V52.9957C66.8003 53.3466 66.8003 53.8146 66.8003 53.8146C66.8003 53.8146 67.0343 53.3466 67.2683 52.9957L69.608 49.603H70.31V54.8675H69.608V51.4748C69.608 51.1239 69.608 50.6559 69.608 50.6559C69.608 50.6559 69.3741 51.1239 69.1401 51.4748L66.8003 54.8675H66.0984V49.603Z" fill="white"/>
<path d="M71.5968 54.1656C72.2987 53.1127 72.4157 51.7089 72.4157 50.539V49.4861H75.5744V54.1656H76.1594V55.9204H75.4574V54.8675H71.8308V55.9204H71.1288V54.1656H71.5968ZM74.8725 54.1656V50.188H73.2347V50.656C73.2347 51.8258 73.1177 53.2297 72.5327 54.1656H74.8725Z" fill="white"/>
<path d="M77.2123 49.603H77.9142V52.9957C77.9142 53.3466 77.9142 53.8146 77.9142 53.8146C77.9142 53.8146 78.1482 53.3466 78.3822 52.9957L80.7219 49.603H81.4239V54.8675H80.7219V51.4748C80.7219 51.1239 80.7219 50.6559 80.7219 50.6559C80.7219 50.6559 80.488 51.1239 80.254 51.4748L77.9142 54.8675H77.2123V49.603Z" fill="white"/>
<path d="M82.4767 51.2409V49.4861H83.1786V51.0069C83.1786 51.7088 83.5296 52.0598 84.2315 52.0598C84.6995 52.0598 85.1674 51.8258 85.4014 51.7089V49.4861H86.1033V54.7506H85.4014V52.6448C85.4014 52.5278 85.4014 52.4108 85.4014 52.4108C85.1674 52.5278 84.5825 52.7617 83.9975 52.7617C83.0616 52.8787 82.4767 52.2938 82.4767 51.2409Z" fill="white"/>
<path d="M87.6242 49.603H90.6659V50.305H88.3261V51.9428H90.198V52.6447H88.3261V54.3995H90.7829V55.1014H87.5072V49.603H87.6242Z" fill="white"/>
<path d="M94.1756 49.4861C94.8775 49.4861 95.5794 49.7201 96.1643 50.188L95.8134 50.773C95.4624 50.422 94.8775 50.188 94.2925 50.188C93.0057 50.188 92.3037 51.1239 92.3037 52.1768C92.3037 53.3467 93.0057 54.2826 94.2925 54.2826C94.8775 54.2826 95.4624 54.0486 95.9304 53.5807L96.2813 54.1656C95.8134 54.6336 95.1115 54.9845 94.1756 54.9845C92.5377 54.9845 91.4848 53.8146 91.4848 52.1768C91.4848 50.656 92.5377 49.4861 94.1756 49.4861Z" fill="white"/>
<path d="M97.1002 49.603H97.8022V51.8258H98.6211L100.025 49.603H100.844L99.323 52.1767L100.961 54.9845H100.142L98.738 52.5277H97.9191V54.9845H97.2172V49.603H97.1002Z" fill="white"/>
<path d="M103.067 49.603H103.885L105.757 54.8675H104.938L104.353 53.3466H102.365L101.78 54.8675H101.078L103.067 49.603ZM104.236 52.7617L103.652 51.1239C103.535 50.8899 103.418 50.4219 103.418 50.4219C103.418 50.4219 103.301 50.8899 103.184 51.1239L102.599 52.7617H104.236Z" fill="white"/>
<path d="M107.278 52.8787C107.395 52.7617 107.395 52.6447 107.395 52.6447C106.693 52.4107 106.342 51.8258 106.342 51.1239C106.342 50.4219 106.693 49.954 107.161 49.72C107.395 49.603 107.629 49.603 108.097 49.603H109.735V54.8675H109.033V52.7617H108.097L106.81 54.8675H105.991L107.278 52.8787ZM109.15 52.0598V50.188H108.331C107.98 50.188 107.746 50.188 107.629 50.305C107.395 50.422 107.161 50.7729 107.161 51.1239C107.161 51.7088 107.512 52.0598 108.097 52.0598H109.15Z" fill="white"/>
<path d="M113.128 49.603H113.83V51.8258H114.648L116.052 49.603H116.871L115.35 52.1767L116.988 54.9845H116.169L114.765 52.5277H113.947V54.9845H113.245V49.603H113.128Z" fill="white"/>
<path d="M120.03 49.4861C121.551 49.4861 122.721 50.656 122.721 52.1768C122.721 53.6976 121.551 54.9845 120.03 54.9845C118.509 54.9845 117.339 53.8146 117.339 52.1768C117.339 50.656 118.509 49.4861 120.03 49.4861ZM120.03 54.2826C121.083 54.2826 122.019 53.3467 122.019 52.1768C122.019 51.0069 121.2 50.188 120.03 50.188C118.977 50.188 118.041 51.1239 118.041 52.1768C118.041 53.3467 118.977 54.2826 120.03 54.2826Z" fill="white"/>
<path d="M124.007 49.603H124.826L125.996 52.5277C126.113 52.8787 126.23 53.2297 126.23 53.2297C126.23 53.2297 126.347 52.7617 126.464 52.5277L127.634 49.603H128.453L128.921 54.8675H128.219L127.985 51.4748C127.985 51.1239 127.985 50.6559 127.985 50.6559C127.985 50.6559 127.868 51.1239 127.751 51.4748L126.698 53.8146H125.996L124.943 51.4748C124.826 51.2409 124.709 50.6559 124.709 50.6559C124.709 50.6559 124.709 51.1239 124.709 51.4748L124.475 54.8675H123.773L124.007 49.603Z" fill="white"/>
<path d="M130.208 49.603H134.419V54.8675H133.717V50.188H131.027V54.8675H130.325V49.603H130.208Z" fill="white"/>
<path d="M137.11 49.603H137.929L139.801 54.8675H138.982L138.397 53.3466H136.408L135.823 54.8675H135.121L137.11 49.603ZM138.28 52.7617L137.695 51.1239C137.578 50.8899 137.461 50.4219 137.461 50.4219C137.461 50.4219 137.344 50.8899 137.227 51.1239L136.642 52.7617H138.28Z" fill="white"/>
<path d="M140.62 49.603H141.322V51.9428H144.129V49.603H144.831V54.8675H144.129V52.5277H141.322V54.8675H140.62V49.603Z" fill="white"/>
<path d="M146.235 49.603H146.937V52.9957C146.937 53.3466 146.937 53.8146 146.937 53.8146C146.937 53.8146 147.171 53.3466 147.405 52.9957L149.745 49.603H150.447V54.8675H149.745V51.4748C149.745 51.1239 149.745 50.6559 149.745 50.6559C149.745 50.6559 149.511 51.1239 149.277 51.4748L146.937 54.8675H146.235V49.603Z" fill="white"/>
<path d="M152.553 52.8787C152.67 52.7617 152.67 52.6447 152.67 52.6447C151.968 52.4107 151.617 51.8258 151.617 51.1239C151.617 50.4219 151.968 49.954 152.436 49.72C152.67 49.603 152.904 49.603 153.372 49.603H155.009V54.8675H154.307V52.7617H153.372L152.085 54.8675H151.383L152.553 52.8787ZM154.424 52.0598V50.188H153.605C153.254 50.188 153.021 50.188 152.904 50.305C152.67 50.422 152.436 50.7729 152.436 51.1239C152.436 51.7088 152.787 52.0598 153.372 52.0598H154.424Z" fill="white"/>
</svg>
