<svg width="361" height="115" viewBox="0 0 361 115" fill="none" xmlns="http://www.w3.org/2000/svg">
<path d="M156.21 33.3567C156.691 32.7113 157.737 32.6966 158.464 32.3846C159.082 32.1145 159.949 31.9541 159.942 31.1621C157.964 31.9174 156.153 32.7459 154.225 33.32C152.967 33.7149 151.652 34.7384 150.133 33.9596C149.925 33.8682 149.474 34.2114 149.273 34.4163C147.007 36.8031 143.646 37.4028 139.983 37.5541C141.324 37.1957 142.711 36.8798 143.616 35.9698C138.748 37.8463 133.652 39.0147 128.295 39.5051C128.648 39.0286 129.617 39.0257 129.887 38.5127C129.277 38.3354 128.663 38.6296 128.348 38.8523C126.92 39.8936 125.124 40.0752 123.298 40.311C121.169 40.5943 119.021 41.0045 116.903 41.3603C116.448 41.4314 116.005 41.575 115.725 41.2718C117.524 40.8666 118.987 40.043 120.415 39.2496C120.086 38.8798 119.661 39.3923 119.309 39.1251C119.688 38.818 120.071 38.5351 120.556 38.1618C116.653 39.2676 116.653 39.2676 115.986 40.2146C116.865 40.1268 117.619 39.4884 118.65 39.6248C117.793 40.3535 116.339 40.4818 115.766 41.2901C114.702 41.6796 113.618 41.9482 112.466 42.029C112.27 41.7624 112.72 41.6671 112.849 41.4982C113.145 41.1546 113.694 40.6969 113.084 40.5196C112.437 40.3482 112.539 41.0015 112.22 41.1999C111.364 41.6808 110.459 42.3429 109.474 42.4969C106.712 42.9534 103.984 43.6277 101.199 43.6912C100.04 43.7237 99.1231 44.5611 97.9033 44.2065C99.3052 43.4916 101.002 43.1767 102.17 42.201C100.563 42.8488 98.7824 43.1271 97.1305 43.7324C93.9366 44.9009 90.5268 45.6818 87.0603 46.0998C86.3746 46.1822 86.1247 45.8247 85.7042 45.6177C85.2383 45.3683 84.9353 44.9199 84.1057 44.8265C84.56 45.9949 83.5711 46.6204 81.9761 46.845C78.1042 47.4007 74.255 48.1015 70.3679 48.5605C68.5002 48.7781 66.5415 49.1586 64.2683 49.7619C65.5679 48.8894 66.928 48.8999 67.8184 48.141C64.2192 48.9515 60.9531 50.8998 57.0322 50.6451C57.8393 49.8497 58.9495 49.2548 60.1809 48.6905C62.4618 47.6399 64.023 45.9582 66.7129 45.2898C67.4972 45.0928 68.2246 44.7808 69.0581 44.6505C72.5853 44.1239 76.1049 43.5489 79.6207 42.9498C80.7913 42.742 81.5641 42.9682 82.1853 43.466C82.2762 43.5509 82.4845 43.6423 82.4997 43.7391C82.5033 44.5069 82.5828 44.5193 83.6815 44.3475C84.4771 44.2232 85.4206 43.5551 85.947 44.4396C85.9507 44.4637 86.6668 44.327 86.9964 44.2011C88.0194 43.7933 89.0386 43.3614 90.2775 42.8455C89.3267 42.7214 88.8454 43.1189 88.3264 43.2744C87.5156 43.5499 87.5535 43.5439 86.7277 43.2269C86.561 43.1538 86.1746 43.1646 85.9927 43.2426C84.1665 44.2221 83.2801 43.5179 82.409 42.6626C83.0039 42.2474 83.7881 42.2983 84.5041 42.1616C88.1374 41.5688 91.8161 41.0186 95.4531 40.45C105.303 38.9102 115.108 37.3279 124.958 35.788C125.83 35.6518 126.758 35.3828 125.958 36.4745C127.304 35.1488 129.315 35.107 131.13 34.7985C133.778 34.3597 136.464 33.6672 139.059 33.6333C141.965 33.6004 144.553 32.2788 147.512 32.3368C146.974 32.6192 146.504 32.8414 146.072 33.0576C146.133 33.1969 146.189 33.3119 146.212 33.4571C151.679 31.1896 157.616 30.6829 163.484 29.7407C162.893 30.4281 161.507 30.2482 161.184 31.1661C165.246 29.0935 169.804 28.7033 174.358 28.041C174.297 28.6454 173.206 28.3698 173.016 28.8952C174.062 29.1283 175.009 28.7324 175.763 28.3418C177.491 27.4769 179.419 27.1506 181.393 26.8669C183.594 26.5475 185.784 26.1557 188.027 25.8546C188.557 25.7717 189.421 25.3392 189.633 25.9506C189.777 26.3742 189.462 26.8448 188.818 27.1934C187.886 27.6861 186.723 27.9423 185.518 28.9238C186.874 28.4143 187.753 28.0786 188.636 27.7671C189.151 27.5874 189.64 27.4862 189.754 27.9642C189.928 28.5815 188.526 30.04 187.507 30.2241C184.214 30.7636 180.88 31.2848 177.281 31.8474C178.441 31.0712 179.744 30.7188 180.559 29.9717C180.305 29.59 179.748 29.7515 179.46 29.8956C174.307 32.6841 168.302 33.251 162.43 34.169C161.369 34.3348 160.267 34.4824 159.214 34.6966C158.35 34.8812 158.979 34.4358 158.846 34.3326L158.774 34.3687C161.927 33.1819 165.162 32.0316 167.849 30.3475C167.606 30.2862 167.413 30.2916 167.307 30.3578C165.795 31.1147 158.665 33.1712 156.979 33.3108C156.672 33.334 156.357 33.3088 156.047 33.3078L156.21 33.3567ZM101.211 41.0371C99.4344 41.5875 98.2636 42.2911 96.8013 42.371C96.4187 42.406 95.7784 42.5309 95.9942 42.9185C96.1495 43.1669 96.5207 43.3072 97.1913 43.128C98.6348 42.6792 99.8207 42.0725 101.211 41.0371ZM112.225 39.7368C114.119 39.4407 115.979 38.679 117.692 37.4693C115.934 38.1407 114.089 38.7514 112.225 39.7368ZM63.2077 49.184C64.8482 48.5062 66.0001 47.9295 67.0193 47.2497C67.1936 47.1233 67.3225 46.9544 67.1444 46.8087C66.9285 46.669 66.6255 46.7163 66.4966 46.8852C65.8107 47.7113 64.3634 48.1358 63.2077 49.184Z" fill="#FFD441"/>
<path d="M241.404 18.4772C243.146 18.2048 244.378 17.1447 246.143 16.7696C246.132 17.1927 245.333 17.2929 245.226 17.607C245.31 17.6435 245.435 17.6983 245.473 17.6924C249.868 15.2702 255.065 15.4988 259.93 14.5896C261.438 14.3043 263.071 13.5781 264.605 14.2058C265.598 13.1087 267.223 13.5735 268.519 13.1726C267.647 13.5567 266.719 13.8258 266.026 14.3555C265.783 14.5422 265.397 14.8009 265.923 14.9417C266.245 15.0153 266.76 15.0835 266.863 14.7452C267.052 13.972 267.89 14.1137 268.606 13.977C269.515 13.8349 270.557 13.796 270.902 13.0232C271.046 12.7032 271.383 12.6257 271.781 12.6875C271.898 12.6939 271.997 12.8273 272.072 12.8154C273.493 12.4694 275.156 12.6804 276.365 12.2188C278.93 11.2477 281.532 11.2622 284.45 10.5583C282.358 12.5708 279.338 13.613 277.641 15.4152L277.713 15.3791C276.8 15.745 276.136 16.4683 274.92 16.3857C274.568 16.3665 273.318 17.0577 274.125 16.0144C274.254 15.8455 273.754 15.8741 273.617 15.9946C272.863 16.633 271.753 16.7321 270.677 17.0491C270.859 16.4753 271.105 16.065 272.291 16.2018C271.45 15.788 270.723 15.3563 270.386 16.4254C270.177 17.0777 269.514 17.3052 268.639 17.4173C267.12 17.63 265.642 17.8609 264.123 18.0736C265.135 17.5933 266.491 17.3317 266.593 16.2498C265.434 16.778 263.767 16.7907 263.369 17.9684C258.52 19.2222 253.515 19.7319 248.559 20.5561C247.086 20.8113 247.082 20.7871 247.393 19.7966C246.472 19.8662 245.65 20.069 245.165 20.6902C245.036 20.859 244.695 21.1602 244.536 21.1355C242.532 20.9778 240.637 22.0176 238.713 21.8723C238.126 21.8401 237.724 22.0021 237.277 22.1215C234.648 22.9292 231.947 23.0292 229.132 23.6427C229.45 22.9485 230.371 22.6311 230.439 21.8272C229.643 22.4473 229.219 22.9598 228.454 23.2778C227.76 23.5597 227.253 24.0356 226.359 23.5309C225.847 23.239 224.9 23.635 224.199 23.8685C223.093 24.2397 222.206 24.2792 221.805 23.4496C221.797 23.4012 221.741 23.2861 221.703 23.292C221.513 23.3216 221.328 23.3755 221.142 23.4293C220.036 23.8005 219.089 23.4528 218.278 23.2325C216.13 22.6511 215.71 22.6921 214.391 24.1872C214.288 24.2775 214.19 24.3921 214.103 24.5792C216.016 23.1647 217.649 23.6779 219.297 24.2878C219.626 24.4098 220.278 24.3575 220.111 24.7802C219.975 25.1486 219.35 25.1223 218.971 25.1816C214.011 25.9816 209.011 26.7633 204.051 27.5634C199.808 28.2267 195.565 28.89 191.322 29.5533C190.905 29.6185 190.481 29.6352 189.871 29.7058C191.205 28.5554 192.921 28.1135 194.542 27.5626C194.826 27.89 193.864 28.1892 194.538 28.5299C195.588 27.5479 197.403 27.2394 198.71 26.4154C199.028 26.2169 199.653 25.9952 199.301 25.7281C198.903 25.4184 198.543 25.8465 198.221 26.0208C197.797 26.2854 197.464 26.635 196.672 26.7836C196.903 26.5244 197.255 26.2958 197.198 26.1807C197.089 25.9748 196.676 26.0641 196.384 26.1841C195.145 26.7 193.951 27.2584 192.709 27.7501C192.159 27.9599 191.004 28.2645 190.989 28.1677C191.019 27.3697 189.633 26.942 190.3 25.995C190.679 25.44 191.164 25.3146 191.884 25.2021C197.188 24.3729 202.454 23.5497 207.75 22.6722C208.773 22.5123 209.603 22.6057 210.095 23.0244C210.989 23.7771 212.383 23.5095 213.679 23.8523C213.418 22.6786 211.455 23.0349 210.86 22.2107C215.642 21.5129 220.298 20.7603 224.958 20.0318C225.829 19.8956 226.742 19.7776 227.606 19.593C228.921 19.3132 228.492 19.8015 228.235 20.3871C231.357 18.7588 234.842 18.4619 238.562 17.9298C237.661 18.6161 237.888 19.5721 236.304 19.8693C235.925 19.9285 235.626 20.248 235.739 20.4781C235.898 20.7507 236.391 20.6737 236.721 20.5478C237.861 20.1464 239.138 19.8725 240.036 19.162C240.54 18.9097 240.972 18.6934 241.404 18.4772ZM262.388 15.172C262.29 15.0387 262.157 14.9354 262.059 14.8021C259.399 15.9119 256.777 17.0158 254.118 18.1257C254.209 18.2106 254.262 18.3015 254.356 18.4106C257.024 17.3492 259.687 16.2635 262.388 15.172ZM272.481 14.6849C273.371 14.6697 274.008 14.2727 274.739 13.9849C275.542 13.6611 276.039 13.6083 276.141 14.2616C276.69 14.0517 277.277 13.836 277.899 13.5901C275.982 13.2453 278.168 12.8292 277.979 12.3631C275.986 13.0216 274.197 13.7474 272.481 14.6849ZM246.969 18.8218C249.496 19.0961 250.045 17.6468 251.887 17.012C249.557 17.0044 248.492 17.8897 246.969 18.8218ZM261.017 17.3199C262.282 17.717 262.782 16.6968 263.604 16.7418C265.487 16.8689 264.305 16.0126 264.93 15.543C263.339 16.0396 262.237 16.683 261.017 17.3199ZM225.662 20.814C223.825 21.2252 222.218 21.8729 220.805 22.7631C222.688 22.3944 224.15 21.5709 225.662 20.814Z" fill="#FFD441"/>
<path d="M277.682 15.4334C280.263 14.3112 282.184 12.6972 284.627 11.4476C285.166 11.1652 285.533 10.7855 286.086 11.3435C286.779 12.0531 287.446 11.6019 288.018 11.0415C289.466 9.62538 290.705 9.35735 293.072 9.85479C293.637 9.98964 294.107 9.51959 294.629 9.38828C295.41 9.16713 296.228 8.1964 297.077 9.15443C297.122 9.19689 297.577 9.12583 297.573 9.10163C298.043 8.13581 299.32 8.35763 300.225 8.19129C308.098 6.91104 315.978 5.67918 323.817 4.42904C324.044 4.39351 324.275 4.38217 324.552 4.4133C323.51 4.70011 322.377 4.90197 321.96 5.71077C321.903 5.8436 321.933 6.03716 322.028 6.1463C322.164 6.27371 322.43 6.23225 322.634 6.05154C323.953 5.05222 325.995 5.69974 327.423 4.65845C328.674 3.71936 330.462 3.24152 332.307 3.12662C332.383 3.11477 332.424 3.13304 332.777 3.15233C331.352 3.72205 330.068 4.19549 328.87 4.72968C327.707 5.23374 326.423 5.70719 325.669 6.59348C328.226 5.32612 331.647 5.11358 333.663 3.1129C334.266 2.49818 335.682 2.62372 336.739 2.43369C337.645 2.26736 338.596 2.14349 339.505 2.00136C339.577 2.46108 338.823 2.60373 338.766 2.98443C338.952 2.93063 339.141 2.90101 339.289 2.85313C340.176 2.56581 340.574 1.63604 341.593 1.69982C343.824 1.82197 345.859 0.685919 348.226 0.687592C347.355 1.07169 346.665 1.37778 345.976 1.68388C347.571 1.45933 349.06 1.05306 350.397 0.422602C351.227 0.0202296 351.549 0.0938288 351.564 0.686379C351.583 1.05524 351.677 1.41226 351.734 1.7752C351.991 3.17265 352.014 3.06995 349.927 3.1236C348.536 3.16744 348.055 4.30855 346.846 4.77014C348.233 4.20635 349.836 4.52596 351.165 3.8471C351.775 3.52866 352.078 3.72917 352.147 4.16469C352.536 6.65689 352.964 9.14316 353.315 11.6413C353.406 12.222 351.231 13.9501 350.31 14.0196C349.2 14.1188 348.268 14.6115 347.162 14.7349C347.102 14.5956 347.083 14.4746 347.026 14.3596C346.344 12.731 346.674 11.3657 349.717 10.4687C350.679 10.1696 351.213 9.3672 351.13 8.587C350.224 9.49699 348.917 10.0731 347.705 10.7584C346.746 11.3297 346.405 11.1351 346.375 10.4457C346.337 9.9559 346.148 9.48975 346.11 8.9999C346.073 8.01429 345.115 6.85035 347.929 6.23679C346.638 6.41396 345.372 7.00838 345.513 5.67269C345.573 5.31618 344.861 5.47709 344.441 5.51804C341.751 5.93853 339.008 6.26816 336.337 6.80964C335.469 6.97005 334.496 6.20509 333.795 7.18224C333.223 6.999 333.658 6.31118 332.753 6.22964C331.787 7.24825 330.355 7.76957 328.65 8.03608C326.449 8.35539 324.255 8.72308 322.016 9.04831C321.561 9.11938 320.527 9.70246 320.834 8.68775C320.91 8.42802 320.023 8.71533 319.732 8.8353C316.128 10.3653 312.109 10.4731 308.002 11.2638C309.34 10.1376 311.31 9.82961 312.818 8.80067C311.439 8.91709 310.469 9.91151 309.26 9.38157C309.052 9.2902 308.703 9.79088 308.472 10.0501C307.381 11.2618 303.346 12.7601 301.785 12.2109C300.633 11.796 300.236 12.23 299.542 12.5119C298.409 12.9617 296.693 13.4035 296.11 13.1476C294.155 12.313 292.931 13.6693 291.378 13.9121C287.101 14.6056 282.823 15.299 278.546 15.9924C277.864 16.099 277.644 15.9351 277.735 15.5242C277.754 15.3973 277.682 15.4334 277.682 15.4334ZM283.153 14.6773C283.782 14.4799 284.005 14.4201 284.187 14.3421C285.862 13.6342 287.537 12.9262 289.166 12.1758C289.526 11.9956 290.378 12.482 290.238 11.8347C290.117 11.3083 289.397 11.6687 288.874 11.8C286.665 12.3188 284.813 13.1289 283.153 14.6773ZM330.173 6.1124C328.362 6.44506 326.695 6.95353 325.399 7.85015C326.331 7.85319 327.01 7.47451 327.707 7.21681C328.582 6.85691 329.378 6.48465 330.173 6.1124ZM336.72 4.29578C335.705 4.75196 334.689 5.20814 333.568 5.73048C335.632 6.2753 335.985 5.05517 336.72 4.29578Z" fill="#FFD441"/>
<path d="M356.909 34.3797C356.772 35.2438 358.143 36.0705 356.419 36.9597C356.237 37.0377 356.188 37.2189 356.457 37.2017C358.181 37.0561 357.442 38.0392 357.548 38.4688C357.949 40.0421 358.127 41.6751 358.376 43.272C358.641 44.9657 358.641 44.9657 356.97 46.1937C357.447 46.7635 358.508 45.3583 358.845 46.2723C359.107 46.9503 358.08 47.086 357.273 47.6336C358.762 47.2273 359.231 47.5009 359.159 48.2806C359.136 48.6312 359.273 49.0065 359.33 49.3694C359.643 51.3777 359.507 51.2503 356.809 52.6139C355.48 53.2928 354.339 54.1899 353.062 54.9596C351.429 55.9337 349.736 56.2728 347.837 56.5448C342.378 57.3734 336.93 58.2746 331.478 59.1516C330.796 59.2582 330.152 59.3589 329.395 59.4774C329.835 57.8222 332.668 57.3296 333.381 55.9293C331.945 57.1701 329.603 57.8335 328.512 59.2931C328.194 59.7395 327.466 59.8036 326.822 59.9043C320.23 60.9348 313.657 62.0863 307.042 62.9716C303.242 63.4912 299.473 64.4523 295.252 64.7651C297.548 63.8112 299.628 62.9656 300.508 61.3904C300.606 61.5238 300.818 61.6393 300.799 61.7662C300.727 62.0502 299.784 62.2224 300.231 62.5987C300.674 62.9508 301.382 62.7657 301.977 62.5984C303.576 62.1501 305.114 61.5626 306.331 60.6537C305.527 61.2254 304.319 60.4476 303.766 61.129C303.178 61.8405 302.769 61.7061 302.246 61.3417C301.682 60.959 301.14 60.7214 300.511 61.4146C300.098 61.504 299.719 61.5632 299.307 61.6525L299.348 61.6708C299.993 60.3307 300.898 59.1728 303.505 59.4595C303.357 60.0031 301.561 60.4326 302.682 61.1496C305.88 58.518 307.987 58.0895 310.051 59.1301C309.782 59.3953 309.024 59.5137 309.111 60.0702C312.373 59.3372 314.522 56.6961 318.397 57.1561C318.485 57.4648 317.492 57.8182 317.878 58.3032C318.947 58.1857 319.856 58.0436 320.754 57.3331C321.648 56.5984 323.046 56.1072 324.615 55.9612C326.414 55.8038 328.218 55.4227 330.07 55.1083C329.911 55.5794 329.104 55.6312 328.869 56.1141C332.071 54.4982 335.537 54.0802 339.356 53.9294C338.31 54.9357 336.863 55.3602 335.688 56.0396C337.298 55.4161 339.549 55.4113 340.114 53.811C340.163 53.6298 340.375 53.4975 340.64 53.456C342.455 53.1475 344.3 52.7847 346.13 52.573C347.388 52.426 345.668 53.0915 346.539 53.2032C347.774 52.1673 349.642 51.9497 351.468 51.7138C352.608 51.5603 352.953 51.2833 352.836 50.5332C352.132 46.2807 351.467 42.0221 350.763 37.7696C350.653 37.0679 350.434 36.656 352.161 36.2868C353.775 35.9354 355.711 35.4096 356.984 34.3678C356.981 34.3437 356.909 34.3797 356.909 34.3797ZM348.637 55.9488C351.334 55.3288 355.84 52.6168 355.976 51.5048C353.794 53.1845 350.945 54.3239 348.637 55.9488ZM334.9 57.6997C337.389 56.9883 339.556 55.9555 341.542 54.7528C339.181 55.5431 336.881 56.4728 334.9 57.6997ZM353.832 50.9476C355.613 50.9171 355.685 50.8811 357.852 49.6004C356.295 49.819 354.939 50.0806 353.832 50.9476Z" fill="#FFD441"/>
<path d="M95.4437 93.7691C93.6706 94.0958 92.549 95.1139 90.81 95.6584C91.4198 96.0836 92.189 95.542 92.7155 95.9306C91.5068 96.6401 89.6051 96.3921 88.7638 97.4655C88.7676 97.4897 88.6501 97.4833 88.5744 97.4951C85.8429 97.4016 85.896 97.4924 82.6566 98.3706C80.6827 98.9023 78.546 99.1372 75.9774 99.5883C78.3191 97.4375 81.4601 96.1781 83.4153 94.2861L83.3775 94.292C84.2148 93.6901 85.0635 93.6566 85.5482 94.2749C85.8398 94.6507 86.1202 94.4581 86.3324 94.3258C88.8711 92.6896 92.0571 92.7121 95.0084 92.2259C100.49 91.2946 105.984 90.4358 111.485 89.6255C111.977 89.5485 113.773 88.6233 112.962 90.1381C113.508 90.152 113.742 91.1564 114.675 90.1679C114.906 89.9087 115.163 89.571 115.52 89.3666C116.232 88.9578 116.876 88.3613 117.831 89.0053C118.221 89.2665 118.865 89.1659 119.267 88.756C119.763 88.2075 120.49 88.1433 121.309 88.1642C121.032 88.3809 120.79 88.5675 120.479 88.8144C122.43 88.6333 123.991 86.9516 126.029 87.8228C127.033 87.5419 127.954 87.4724 128.723 87.9223C129.2 88.4922 129.62 88.947 130.424 87.8795C131.166 86.9206 132.617 86.5202 133.981 86.0592C133.925 86.4399 135.815 85.128 134.815 86.4246C134.686 86.5935 135.41 86.5052 135.739 86.3793C140.733 84.3097 146.302 84.4307 151.515 83.2687C152.602 83.0244 154.015 83.8693 154.387 83.266C155.035 82.1979 156.11 82.6247 156.898 82.4519C159.266 81.9578 161.733 81.8449 164.085 81.2541C164.532 81.1346 165.279 80.9436 165.445 81.2645C165.62 81.6339 165.26 82.062 164.562 82.3197C163.358 82.8055 162.194 83.3096 160.993 83.8195C160.74 83.9336 160.334 84.0713 160.524 84.2896C160.72 84.5563 161.175 84.4852 161.497 84.3109C162.217 83.9505 162.668 83.3595 163.839 83.1517C163.532 83.4227 163.327 83.6035 163.02 83.8745C164.744 83.729 165.949 82.9953 167.301 82.4616C168.987 81.8263 168.984 81.8021 169.737 82.651C170.487 83.4756 169.665 84.6701 168.07 84.8946C166.02 85.1902 163.944 85.5643 161.879 85.7632C160.542 85.8979 159.754 85.327 158.565 85.4138C158.565 85.9096 159.538 85.683 159.735 86.1975C157.121 86.6062 154.545 87.0089 151.934 87.4418C147.843 88.0814 143.751 88.721 139.663 89.3848C138.261 89.6039 136.894 89.793 135.53 89.7583C135.382 89.3104 135.939 89.149 136.447 88.9209C137.606 88.3926 138.77 87.8886 139.838 87.2754C140.622 86.8305 142.278 86.2495 141.608 85.685C140.854 85.084 139.687 86.0596 138.747 86.504C138.709 86.5099 138.721 86.5825 138.724 86.6067C139.073 86.8496 139.675 86.2349 140.016 86.6774C138.137 87.8139 135.848 88.5683 133.522 89.5764C134.424 89.6337 135.015 89.6901 135.602 89.7222C134.814 90.3908 133.745 90.2603 132.798 90.4084C132.306 90.4854 132.397 90.3224 132.548 90.0509C132.764 89.6948 132.333 89.6632 131.908 89.68C131.098 89.7076 130.415 90.5578 129.491 90.1074C127.869 91.8977 125.153 91.4052 122.956 91.9966C122.622 92.0983 122.236 92.1091 121.785 92.2044C122.789 91.1799 123.816 90.3005 125.729 89.6296C124.294 89.3831 123.305 89.5129 122.327 89.9631C120.259 90.8814 118.232 91.818 116.163 92.7362C115.257 93.1505 114.443 93.6496 113.219 93.2708C112.443 93.0204 111.825 93.7862 110.95 93.8982C107.294 94.3458 103.687 95.1079 99.9856 95.513C97.5837 95.7893 95.1703 96.4888 92.7191 96.6985C93.6513 95.71 94.5418 94.7032 95.4361 93.7207C97.1634 94.5909 98.0313 93.4389 99.0241 92.5897C97.8495 93.0212 96.6258 93.386 95.4437 93.7691ZM81.1034 98.3656C83.6722 97.4187 86.1424 96.5864 88.1961 95.3234C86.226 95.8793 86.226 95.8793 84.2181 95.9453C84.1006 95.9388 83.9983 96.0292 83.8468 96.0529C81.9374 96.2522 81.5053 97.2121 81.1034 98.3656ZM108.405 91.272C107.257 91.1292 106.73 91.4842 106.218 91.6881C103.839 92.6054 101.543 93.5592 99.1638 94.4765C98.7243 94.6443 97.9324 94.7929 98.1786 95.1262C98.4816 95.5746 99.1522 95.1475 99.6258 94.9495C102.38 93.701 105.089 92.4099 108.405 91.272ZM108.078 93.653C110.116 93.037 112.238 92.7053 113.201 90.9188C112.015 91.5256 111.189 91.4564 110.212 90.9151C110.579 92.2706 109.025 92.7613 108.078 93.653ZM146.961 85.1704C144.964 85.5569 144.49 86.9943 142.638 87.0608C142.289 87.0657 141.937 87.5422 142.13 87.7846C142.414 88.112 142.872 87.8173 143.282 87.7037C144.873 87.2071 145.559 86.1332 146.961 85.1704Z" fill="#FFD441"/>
<path d="M242.659 72.9371C241.989 73.612 240.913 73.4332 240.045 73.5936C235.169 74.4302 230.259 75.2969 225.342 75.8673C223.625 76.0612 221.939 76.6966 220.375 76.6189C217.874 76.514 215.772 77.9582 213.252 77.7323C213.495 77.5457 213.741 77.3833 214.022 77.1907C212.839 77.5738 211.389 76.239 210.384 77.7593C209.71 77.4185 208.668 77.4574 208.271 76.8999L208.237 76.93C208.968 77.138 209.4 76.6738 209.949 76.464C210.608 76.2122 211.188 75.7002 211.912 76.3555C212.238 75.4618 210.889 75.0282 211.821 74.2875L211.749 74.3236C212.143 74.1133 212.583 74.4412 213.007 74.1765C215.197 72.7931 217.906 72.9894 220.433 72.52C219.167 73.1144 217.531 73.3207 216.598 74.3092C221.486 72.3058 226.665 71.1739 232.192 70.7808C231.571 71.0267 230.946 71.2483 230.324 71.4942C230.423 71.6275 230.484 71.7668 230.582 71.9001C234.56 69.5431 239.235 69.655 243.782 68.6965C243.505 69.409 242.456 69.3995 242.262 69.9007L242.334 69.8647C241.035 70.2413 241.11 70.2295 240.819 71.0931C240.712 71.4071 240.14 71.7197 239.761 72.0268C242.425 71.4369 245.384 70.9992 247.293 69.5604C250.908 66.8636 255.306 66.9445 259.61 66.4204C260.41 66.3202 261.054 65.7238 262.035 66.0414C260.728 66.6175 259.493 67.1576 258.261 67.7219C258.31 67.7886 258.36 67.8553 258.409 67.9219C261.072 67.0842 263.743 66.2948 266.358 65.3904C268.123 64.7674 270.574 65.0535 271.366 66.1443C272.002 66.9868 270.203 66.8963 270.032 67.5426C270.907 67.4306 272.131 66.57 272.525 67.847C272.744 68.5067 272.509 68.4939 271.752 68.6123C269.1 69.0269 266.451 69.7135 263.83 69.8259C261.477 69.921 259.386 70.6941 257.097 70.9527C254.62 71.2409 252.168 71.6984 249.71 72.1076C248.8 72.2497 247.963 72.6037 248.331 71.4803C248.695 70.3328 247.922 70.1066 246.365 70.821C245.096 71.3912 243.436 71.7002 242.754 72.7983C242.792 72.7924 242.724 72.8526 242.659 72.9371Z" fill="#FFD441"/>
<path d="M41.8015 101.188C42.9647 100.932 43.8514 99.9005 45.3856 100.528C45.7568 100.669 47.0299 99.8746 47.9316 99.6841C49.3978 99.3805 50.8904 99.2463 52.3793 99.088C51.4397 99.5323 50.75 100.334 49.3068 99.7914C48.7726 99.6022 47.7496 100.258 47.1813 100.595C47.9386 101.963 49.9241 100.265 50.9317 101C50.9355 101.024 51.4091 100.826 51.5038 100.687C52.6256 98.9255 54.9253 98.4917 57.3197 98.1669C58.0054 98.0845 58.6873 97.9779 59.4072 97.8654C59.2896 98.3547 58.3842 98.2732 58.1833 98.726C59.244 98.808 59.9715 98.2481 60.8733 97.8097C61.4943 99.0512 59.2779 99.5216 58.9292 100.518C60.0165 100.274 60.725 99.8407 61.1306 99.2072C62.089 99.3796 62.2441 100.124 63.4072 100.115C63.2672 99.4681 62.915 98.953 62.4112 98.4617C62.0969 98.1886 61.6991 97.8789 62.4986 97.5309C63.0442 97.2969 63.6429 96.9058 64.139 97.3488C64.764 97.8708 65.5369 97.6012 66.2757 97.3618C71.4473 95.6858 76.9141 95.1534 82.2788 94.2157C82.7334 94.1446 82.9872 94.2784 83.3395 94.2977L83.3774 94.2918C80.8654 95.3538 79.0579 96.95 76.7581 98.1275C75.97 98.5482 75.2273 99.0113 74.4354 99.4078C72.8896 100.195 72.2001 100.253 70.4272 99.836C70.1052 99.7624 69.9157 100.04 69.7035 100.172C68.6388 100.81 68.3319 100.833 67.3206 100.322C66.9834 100.151 66.703 100.344 66.4909 100.476C65.1306 101.209 63.5773 101.452 61.9861 101.701C55.6971 102.684 49.374 103.697 43.085 104.68C42.2136 104.817 41.3611 105.074 40.7589 104.449C40.5771 104.279 39.9672 104.102 39.683 104.518C39.467 104.874 40.2512 104.677 40.414 104.974C39.5843 105.376 38.641 105.301 37.781 105.51C37.512 105.279 37.8454 105.177 37.944 105.063C38.2055 104.749 38.9632 104.383 38.414 104.097C37.8647 103.811 37.1941 103.99 36.5651 104.435C35.9362 104.881 35.1859 105.295 34.4661 105.656C33.8182 105.98 33.1815 106.625 32.3369 105.939C32.068 105.709 31.511 106.118 31.1851 106.268C30.1697 106.724 29.0748 106.92 27.4268 107.054C30.3328 106.029 32.572 104.96 34.8491 103.886C35.3568 103.658 36.1411 103.461 35.3873 103.108C34.8456 102.87 35.2096 101.722 33.6486 102.413C32.959 102.719 32.3565 103.333 31.2579 103.009C31.0155 102.948 31.3524 103.862 30.5189 104.24C31.4699 103.869 32.4246 103.521 33.3756 103.149C33.7052 103.023 34.0993 102.813 34.3417 103.122C34.5878 103.456 34.0574 103.538 33.8074 103.677C31.8712 104.698 29.6851 105.362 27.3892 105.82C27.0521 105.898 26.5104 105.66 26.5633 106.247C26.6349 107.45 25.8129 107.405 24.6841 106.888C23.8886 106.516 22.9832 106.187 22.112 105.827C21.4072 106.284 22.9756 106.386 22.2292 106.825L22.1534 106.837C19.3647 108.611 15.8112 108.473 12.6552 109.388C14.4284 108.317 16.5993 107.804 18.293 106.722C18.8045 106.518 19.3539 106.308 19.8654 106.104C20.9186 105.89 21.8508 104.901 23.0781 105.552L23.0364 105.534C24.5442 105.497 26.469 104.65 27.1511 103.8C27.6703 103.149 28.75 102.856 29.6479 102.641C32.1219 102.081 34.5656 101.327 37.1833 101.687C37.8198 101.785 38.2709 100.699 39.4565 101.083C39.1837 101.324 38.9185 101.614 38.3804 102.144C39.786 101.701 40.7483 101.402 41.7485 101.097C42.169 101.304 42.5857 101.486 43.2183 101.809C41.7937 102.131 40.824 101.886 40.2328 102.573C39.9713 102.887 39.85 103.104 40.3046 103.281C40.6796 103.445 40.9069 103.41 41.0434 103.041C41.2405 102.564 41.7368 102.759 42.0663 102.881C42.5133 103.01 42.8163 103.458 43.4226 102.868C43.8925 102.398 43.9456 101.993 43.4267 101.652C43.0744 101.385 42.5706 101.142 41.8015 101.188ZM76.717 95.6304C74.7696 96.3315 72.9812 97.3051 70.8293 97.691C70.4125 97.7562 70.1018 98.0031 70.2988 98.2697C70.4957 98.5364 70.8102 98.3137 71.0603 98.1755C71.3823 98.0012 71.674 98.1291 71.9771 98.0817C74.182 97.7866 76.2885 97.3582 78.1337 96.2517C77.4329 95.9895 77.0804 96.7138 76.5009 96.4822C76.2585 96.1731 77.1602 95.9825 76.717 95.6304Z" fill="#FFD441"/>
<path d="M3.97198 77.9267C3.26387 76.6245 3.42334 75.1619 3.02972 73.6371C4.0336 73.852 4.62824 74.4283 5.65878 74.0689C5.67782 73.6941 5.29146 73.457 4.92023 73.3168C2.62842 72.5596 2.54923 71.0599 2.3905 69.5479C2.22791 68.2596 1.98956 66.9832 1.78531 65.6766C1.69075 65.0717 1.99384 65.0243 2.99027 64.695C5.13469 64.0128 6.35807 65.1353 8.14626 64.9053C8.64255 64.8525 8.52121 65.3176 8.23325 65.4618C7.76722 65.7082 7.20271 65.8212 6.46391 66.0606C7.64184 67.1406 9.24036 67.9318 9.21345 69.4976C9.22834 70.586 8.72057 71.0619 7.29226 71.3596C6.54211 71.5264 5.73138 71.554 5.97364 72.3589C6.30705 72.2572 6.53058 72.1975 6.75033 72.1135C7.55356 71.7897 8.51217 71.2184 9.17129 71.4624C10.1145 71.7859 9.15207 72.5809 9.12919 73.1793C9.11016 73.5541 9.06843 73.7837 8.2577 73.8113C7.09844 73.8438 6.3065 74.4881 5.51456 75.1325C6.60189 74.8881 7.73846 74.7105 8.81824 74.4177C9.48883 74.2385 9.97756 74.1374 9.9509 74.7116C9.89386 75.5881 10.7953 76.3891 9.85554 77.3292C9.35156 77.8294 10.3518 77.5243 10.5184 77.8453C11.1621 79.2319 9.76775 79.9952 8.26354 80.8004C8.46054 80.8192 8.58176 80.8498 8.65753 80.838C10.7566 79.8654 10.8323 79.8536 10.9986 81.414C11.1309 82.7566 12.3959 84.1452 9.75498 85.6239C11.7252 84.8202 11.6871 85.5698 11.8347 86.2655C12.2207 87.9899 12.9173 89.7152 9.13239 90.8274C10.3372 90.5895 11.095 89.9753 12.1975 89.8278C13.1253 91.2939 12.9052 92.6172 10.2871 93.7453C11.1623 93.6333 11.9996 93.5272 13.0641 93.3856C11.5143 94.892 9.4229 95.6651 7.1838 96.2382C6.77462 96.3518 6.65724 96.0975 6.62699 95.9039C6.54755 95.3958 6.15747 94.8867 7.13122 94.4122C8.35881 93.8237 9.58262 93.211 10.7193 92.5376C9.49941 92.6787 8.43098 93.044 7.37391 93.4819C7.01018 93.6379 6.50241 94.1139 6.25631 93.5327C6.13893 93.2784 5.8511 92.9268 6.95357 92.7792C8.32123 92.5902 7.19998 92.121 6.91965 92.0657C5.3362 91.6192 5.99185 90.5995 5.98447 89.8075C5.97318 89.487 6.27267 88.6718 7.43559 89.1593C7.76894 89.3055 8.12132 89.0769 8.17061 88.8956C8.41702 88.2374 9.33769 87.92 10.1334 87.2999C8.26566 87.5175 7.11756 88.3662 5.3672 88.8381C6.06092 87.0689 3.41319 85.5246 6.61487 83.6608C4.58783 84.5974 4.64866 83.7451 4.61096 83.0074C4.59967 82.6869 4.5846 82.3423 4.45966 82.0395C4.10381 81.0045 4.06995 80.0431 6.13859 79.3727C5.37722 78.9712 4.42983 80.1108 4.07392 79.3237C3.88839 78.8817 3.69531 78.3914 3.96441 77.8783C5.01758 77.912 5.76023 77.4489 6.55211 77.0524C7.12802 76.7641 7.50322 76.1849 8.29497 76.2842C8.88973 76.3648 8.94659 76.2319 8.9012 75.9416C8.85581 75.6512 8.51106 75.6803 8.18144 75.8062C6.68864 76.4362 4.92315 76.8113 3.97198 77.9267ZM4.89095 69.1571C4.56133 69.283 4.08785 68.9852 3.80361 69.4014C3.70887 69.5401 3.86413 69.7885 4.00427 69.9401C4.23152 70.1525 4.41704 70.5944 5.06494 70.2701C5.46277 70.084 5.61431 70.0603 5.95522 70.2548C6.29992 70.4736 6.86057 70.5843 7.13724 70.1196C7.31917 69.7938 7.0389 69.4905 6.55401 69.368C6.03502 69.2757 5.48571 69.2376 4.89095 69.1571Z" fill="#FFD441"/>
<path d="M350.144 29.5874C348.86 28.8215 348.8 26.4513 350.035 24.9196C349.656 24.731 348.595 25.3926 348.709 24.6311C348.887 23.2895 347.3 22.0752 348.862 20.6413C349.301 20.2256 350.074 19.956 350.646 19.6435C350.582 19.4801 350.51 19.5161 350.358 19.5398C349.574 19.7368 348.971 20.5994 348.051 20.1731C347.343 19.8625 347.813 17.9051 348.559 17.4662C349.094 17.1596 349.662 16.8229 350.23 16.4862C349.003 16.331 349.003 16.331 347.737 16.9255C347.643 16.3205 348.78 15.1513 349.859 14.8586C350.492 14.6853 351.045 14.4997 351.629 14.2598C352.284 13.9838 353.265 13.5578 353.621 14.097C353.974 14.6121 354.477 15.3513 353.015 15.9269C351.992 16.3347 351.105 16.8699 349.878 17.4584C351.598 17.5366 352.605 16.7841 353.939 16.3774C354.659 17.7521 354.313 19.2685 354.612 20.6843C354.722 21.1381 353.714 21.3947 353.396 21.3453C351.847 21.1166 351.835 22.0355 350.846 22.6611C352.551 22.3946 353.529 21.6964 355.055 21.2842C354.449 23.1142 357.187 24.7434 353.675 26.6062C355.623 25.6573 355.914 26.281 355.906 27.2241C355.899 27.4236 355.933 27.6414 356.001 27.829C356.254 28.9544 356.705 30.0986 354.167 30.9911C356.766 30.2378 356.584 31.3073 356.682 32.1843C356.757 32.9161 356.871 33.642 356.981 34.3437L357.053 34.3077C355.302 34.7796 353.556 35.2757 351.801 35.7234C351.43 35.831 350.892 36.1134 350.642 35.7559C350.494 35.5559 350.051 35.2038 351.033 35.0256C351.487 34.9546 351.294 34.7121 351.002 34.5842C349.464 33.9323 350.01 33.2025 351.249 32.4387C350.935 32.1656 349.957 32.8637 350.003 32.1626C350.029 31.5883 349.317 31.0055 350.352 30.4225C350.78 30.182 351.454 30.027 351.341 29.549C352.996 29.2158 353.285 28.0802 354.338 27.3702C352.91 28.1636 350.921 28.3506 350.144 29.5874ZM352.272 34.2618C353.624 33.7282 355.079 33.352 356.318 32.3403C354.344 32.6241 353.264 33.4126 352.272 34.2618Z" fill="#FFD441"/>
<path d="M47.0607 52.1542C48.902 51.7672 50.2699 50.8345 52.1111 50.4476C53.2401 50.2215 54.6038 50.7519 55.4868 49.6968C55.6156 49.5279 56.1044 49.4267 56.2522 49.131C56.4531 48.6782 56.9495 48.3775 57.529 48.6091C58.0707 48.8467 57.544 49.2017 57.1954 49.4545C55.9109 50.4237 54.5317 51.2837 52.5162 51.5492C49.5536 51.9628 46.6098 52.4973 43.6585 52.9835C42.0294 53.2381 42.0294 53.2381 42.545 52.0669C40.9879 52.0376 39.9119 52.3546 39.1881 53.4344C38.8091 53.9894 34.9903 54.3881 34.0433 54.0404C33.3841 53.7964 32.7212 53.5282 32.1303 53.224C31.5356 52.8956 30.2324 52.7523 30.6038 52.1489C31.1003 51.3525 31.9416 50.5269 33.457 50.29C36.8667 49.757 40.2385 49.2299 43.6444 48.6727C46.7511 48.187 49.8956 47.6955 52.9984 47.1856C56.8249 46.5875 60.6475 45.9651 64.7771 45.3196C63.5987 46.2226 61.9696 46.4773 61.3443 47.4426C61.2798 47.527 60.9426 47.6045 60.8214 47.5739C58.3212 46.9733 56.5214 48.37 54.5777 49.0953C53.1835 49.6107 51.8271 50.1202 50.2813 50.4114C49.0765 50.6493 47.8641 51.3346 47.0607 52.1542ZM44.2611 52.1209C45.6212 51.8835 46.7919 51.4278 47.9136 50.4097C46.1519 50.809 45.1137 51.3679 44.2611 52.1209Z" fill="#FFD441"/>
<path d="M28.766 53.7996C30.9711 52.7608 32.0846 53.9253 33.8159 54.3239C32.6186 54.8581 31.5351 54.8787 30.1712 55.0919C30.8078 54.695 31.2321 54.4303 31.6944 54.1598C29.3605 54.8716 27.1668 55.7351 24.5755 56.041C20.9536 56.4585 17.3355 57.148 13.6227 57.7284C13.8198 57.4993 13.9827 57.3003 14.2139 57.0411C12.8235 57.3328 11.9519 58.2127 10.5199 58.2383C9.12953 58.2821 9.07682 56.9518 7.49697 57.2731C7.39076 57.8351 8.25828 57.9225 8.56125 58.3709C7.56859 58.7244 6.63652 59.2171 5.46212 59.1528C4.91281 59.1148 4.43921 59.3127 4.0944 59.5897C3.05995 60.4207 1.91582 60.55 0.938539 60.0087C0.260503 59.6437 1.41257 58.0756 2.4583 57.5651C4.40957 56.6403 6.36462 55.7398 8.18331 54.7119C8.93352 54.2972 9.66476 54.0094 10.5778 53.8914C15.3552 53.1694 20.1629 52.393 24.9365 51.6468C26.414 51.4158 28.2095 52.2258 28.0767 53.1141C28.0046 53.6459 28.3684 53.242 28.5578 53.2124C29.8269 53.138 28.3986 53.6835 28.766 53.7996ZM4.00368 58.7611C4.99268 57.8877 5.97764 57.9816 7.38301 58.5303C5.18223 57.3623 7.15985 57.1028 8.08057 56.5374C9.11117 55.9302 10.0471 55.2137 11.0322 54.564C8.07704 55.5217 5.78089 56.9713 4.00368 58.7611ZM19.8402 55.0462C22.0036 54.237 24.1783 53.5005 25.9289 52.2849C23.5799 52.9 21.5983 53.879 19.8402 55.0462Z" fill="#FFD441"/>
<path d="M299.344 61.6465C296.806 64.0264 293.354 65.2848 289.251 65.8518C284.655 66.4959 280.083 67.2851 275.495 67.9775C274.889 68.0722 273.953 68.5408 273.638 67.7719C273.373 67.0697 274.37 66.9883 274.889 66.8328C275.631 66.6176 276.446 65.6227 277.363 66.5204C277.367 66.5446 278.026 66.2929 278.352 66.1428C278.605 66.0287 278.689 65.8174 278.556 65.7142C278.333 65.526 277.905 65.5186 277.526 65.5778C276.124 65.7969 274.825 66.1736 273.589 66.7137C272.817 65.9917 273.336 64.8447 271.813 64.2895C273.844 64.1208 275.621 63.3225 277.557 63.7883C278.079 63.9049 279.027 63.7568 279.572 63.5228C282.846 62.1187 286.395 62.2331 289.79 61.6033C292.393 61.1221 295.003 60.6892 297.644 60.2021C298.322 60.0713 299.011 60.0131 299.655 59.9124C299.716 60.5474 297.984 61.1403 299.424 61.6589C299.348 61.6707 299.344 61.6465 299.344 61.6465ZM287.221 62.7981C286.005 63.4591 284.785 64.096 283.319 64.8954C285.512 64.7756 286.141 63.5866 287.221 62.7981Z" fill="#FFD441"/>
<path d="M175.807 80.76C174.197 81.1357 173.242 81.979 171.942 82.3557C171.571 82.4633 171.173 82.6494 170.878 82.4973C170.453 82.2662 171.196 82.0509 171.132 81.8875C170.677 80.2234 172.462 79.9692 174.284 79.7091C177.054 79.301 179.819 78.8687 182.774 78.4067C181.846 79.1715 180.486 79.4089 179.766 80.2651C180.501 80.4972 181.213 80.3363 181.929 80.1996C182.156 80.1641 182.153 80.1399 181.952 79.849C181.656 79.449 182.289 79.2757 182.554 79.2343C184.252 78.9194 186.01 78.248 187.407 79.2441C187.54 79.3473 187.779 79.3843 188.07 79.5122C188.04 79.3187 188.032 79.2703 187.983 79.2036C187.612 78.8155 186.57 78.6065 186.919 78.1058C187.264 77.581 188.344 77.5361 189.139 77.4117C193.038 76.7775 196.902 76.1734 200.857 75.6543C198.239 77.2782 195.144 78.0843 191.738 78.8894C193.147 78.7186 193.317 79.0638 192.525 79.956C193.651 79.4579 194.427 79.2125 194.988 78.8274C196.223 78.0394 197.659 78.5338 198.955 78.133C199.288 78.0313 199.572 78.3587 199.644 78.5705C199.724 78.8308 199.322 78.9927 199.045 78.9616C197.602 78.9145 196.814 80.5746 195.158 79.9162C193.893 81.7501 191.938 80.1718 190.434 80.7291C188.672 81.3764 186.839 81.0681 185.058 81.3464C184.452 81.4412 184.077 81.2767 183.83 81.9349C183.698 82.3275 182.546 82.6563 181.712 82.7865C178.454 83.2959 175.162 83.8353 171.904 84.3447C171.487 84.4098 170.938 84.6196 170.733 84.3046C170.529 83.9895 170.707 83.6394 171.196 83.2903C172.063 82.6342 173.2 82.2086 174.268 81.8433C175.011 81.6281 175.345 81.2785 175.807 80.76Z" fill="#FFD441"/>
<path d="M310.938 56.6116C313.291 54.0377 317.057 54.5397 320.156 53.7578C320.641 53.6324 320.694 53.7232 320.895 54.5099C321.91 53.5579 323.293 53.2178 324.774 53.011C327.657 52.5851 330.575 52.1291 333.454 51.679C334.037 51.9348 332.886 52.2636 333.56 52.6044C335.549 51.4258 337.94 50.829 340.497 50.5532C340.804 50.53 341.448 50.1815 341.228 50.7612C341.145 50.9725 340.948 51.2016 341.383 51.2574C341.777 51.295 342.361 51.0551 342.334 50.8857C342.232 49.9845 343.3 50.115 344.016 49.9782C348.138 49.2843 348.138 49.2843 347.734 46.6953C347.401 44.5661 347.106 42.4309 346.697 40.3135C346.538 39.5451 346.641 38.959 347.819 38.5517C347.52 37.8797 346.773 39.0622 346.402 38.4262C345.955 37.5541 347.656 37.5113 347.797 36.9193C347.399 36.3617 346.224 37.7847 346.153 36.8293C346.073 36.0733 345.126 35.2298 346.911 34.4799C348.078 34 347.991 34.435 348.066 34.9189C348.399 37.0482 348.77 39.1715 349.103 41.3008C349.507 43.8898 349.833 46.4664 350.389 49.0317C350.582 50.0178 350.43 50.5372 348.634 50.7188C345.308 51.0405 342.023 51.6283 338.716 52.071C335.901 52.4367 332.976 53.3401 330.131 53.5122C327.093 53.6897 324.372 54.6603 321.436 54.9953C318.349 55.354 315.261 55.9607 312.196 56.4646C311.783 56.5539 311.397 56.5647 310.938 56.6116Z" fill="#FFD441"/>
<path d="M314.26 13.0617C315.022 12.4716 315.969 12.3236 316.496 11.7207C315.537 11.5483 314.904 11.9694 314.34 12.3304C312.991 13.1361 311.51 13.5908 309.797 13.8089C306.175 14.2264 302.603 14.9584 298.939 15.3575C295.696 15.7158 292.442 16.4972 288.63 17.1921C290.544 16.0254 289.04 16.087 287.801 15.8593C299.277 14.0406 310.188 12.335 321.095 10.6051C321.159 11.0164 320.379 10.9897 320.549 11.3349C320.549 11.3349 320.674 11.3897 320.746 11.3537C325.05 9.34231 329.991 9.41283 334.609 8.41822C337.162 7.87032 339.761 7.86065 342.303 7.24016C342.641 7.16267 343.485 6.85708 343.379 7.419C343.224 8.16215 344.989 9.02643 342.682 9.65977C342.386 9.75554 341.973 9.84489 341.894 9.58465C341.629 8.38669 340.329 9.01123 339.299 9.12275C334.237 9.76525 329.229 10.7465 324.114 11.2981C320.913 11.6746 317.723 12.6195 314.26 13.0617Z" fill="#FFD441"/>
<path d="M87.3977 90.9615C82.9875 93.039 78.426 93.9008 73.577 93.1716C73.8344 94.0733 72.6978 94.251 71.7166 94.4291C67.5151 95.1107 63.2757 95.7982 59.0704 96.4556C52.554 97.4743 46.0377 98.4929 39.4835 99.5175C39.1312 99.2503 39.9268 99.126 39.7223 98.8109C37.559 99.3722 35.3196 101.185 33.1114 99.4725C37.4038 98.8759 41.5372 97.7588 46.0873 97.0723C45.4166 97.7472 44.227 97.8341 43.901 98.4799C44.5109 98.6572 45.0148 98.4049 45.3293 98.1823C47.2921 96.8344 49.7735 96.5704 52.1528 96.1489C56.4983 95.3952 60.8362 94.5932 65.1892 94.1358C67.4813 93.9014 69.7696 93.395 72.0579 93.1364C74.3045 92.8596 76.7595 92.4262 79.1842 91.7993C79.0439 92.3914 78.04 92.4244 77.8125 92.9557C79.3431 92.8155 80.2071 91.8873 81.4612 91.4682C82.1165 91.688 81.0102 92.0592 81.5519 92.2968C83.1052 91.806 84.6927 91.2852 86.3219 90.7827C86.7652 90.639 87.3486 90.3991 87.3636 90.9916L87.3977 90.9615Z" fill="#FFD441"/>
<path d="M20.0267 106.153C19.5152 106.357 18.9658 106.567 18.4543 106.771C15.7682 107.464 13.4531 108.792 10.6647 109.327C10.0623 109.446 9.44082 110.188 8.92952 109.648C8.422 109.132 9.08887 108.681 10.0398 108.557C9.84671 108.067 9.44888 108.253 9.09656 108.234C8.3957 108.219 8.52083 107.778 8.59666 107.519C8.71044 107.005 9.54771 106.899 9.91894 107.039C11.7713 107.717 12.5633 107.072 13.1167 105.895C13.2076 105.732 13.7001 105.655 13.526 105.286C12.1998 105.989 10.6277 105.863 9.22962 106.354C8.97198 106.444 8.63858 106.545 8.37722 106.363C7.4227 105.719 8.1468 103.648 9.49562 103.09C10.3708 102.73 11.3066 102.757 12.2083 102.567C12.3372 102.15 11.8182 102.058 11.5909 101.845C11.2235 101.481 9.87106 101.519 10.3258 100.952C10.8715 100.223 12.1218 99.7793 13.2206 99.3597C13.5843 99.2037 13.7054 99.4822 13.8456 99.6338C14.088 99.9429 14.1788 100.276 13.637 100.534C12.0495 101.303 12.3145 101.757 13.6745 102.263C15.4473 102.928 13.803 103.334 12.3556 104.006C13.9317 103.661 14.8751 103.488 14.8786 104.504C14.8748 104.728 15.2838 105.358 16.5417 104.715C17.5457 104.186 19.2278 104.27 20.5954 104.081L20.5917 104.057C20.4969 104.196 20.2695 104.479 20.3112 104.498C21.6711 105.004 20.6746 105.581 20.0267 106.153Z" fill="#FFD441"/>
<path d="M110.746 44.9252C109.958 45.098 109.507 44.6975 108.674 44.5799C108.776 44.9853 109.363 45.5132 108.253 45.6124C106.832 45.7105 105.381 46.6066 103.995 45.931C103.578 45.7483 103.358 46.0801 103.028 46.206C102.043 46.6079 101.077 47.1307 100.054 46.547C99.8424 46.4314 99.7022 46.5277 99.5923 46.5696C96.4059 48.0345 92.788 47.7325 89.56 48.6832C89.1396 48.2284 90.3406 47.9663 89.8444 47.7712C89.2648 47.5396 88.3783 47.8269 87.8857 48.1518C85.1841 49.987 81.9299 49.7769 78.8271 50.0388C77.9065 50.1084 77.3154 50.5478 76.5085 50.5996C76.3724 49.2327 76.3724 49.2327 78.4561 48.907C90.0075 47.0765 101.525 45.2761 113.076 43.4455C113.455 43.3863 113.822 43.2545 114.156 43.4007C113.315 43.9783 111.871 43.9313 111.261 44.7455C111.113 44.7934 110.928 44.8472 110.746 44.9252Z" fill="#FFD441"/>
<path d="M279.042 61.1269C278.717 59.7897 280.274 60.0668 281.153 59.979C282.801 59.8453 284.468 59.8326 286.051 59.2876C287.559 58.7544 289.325 58.3793 290.704 58.5108C294.166 58.8123 297.061 56.9716 300.346 56.8796C301.312 56.8525 302.32 56.5958 303.797 56.3648C302.755 56.8995 302.145 57.218 301.171 57.6924C302.513 57.5819 303.248 57.0704 304.104 56.8374C304.846 56.6222 305.767 56.8005 305.881 57.0306C306.134 57.6602 305.111 57.5723 304.581 57.6552C299.811 58.4256 294.988 59.1052 290.234 59.9724C288.802 60.2458 287.783 59.4384 286.354 59.9839C281.111 61.9438 275.42 62.0401 269.965 63.1409C268.309 63.474 267.298 63.2108 266.529 62.2651C268.082 62.0223 269.594 61.7612 271.147 61.5183C271.071 62.026 270.177 62.017 270.041 62.3854C270.086 62.4278 270.177 62.5128 270.215 62.5068C271.352 62.3292 272.333 62.151 273.227 61.4163C274.296 60.5552 277.921 60.4098 279.042 61.1269Z" fill="#FFD441"/>
<path d="M176.357 77.328C171.723 78.9695 166.742 79.3764 161.862 80.1888C158.346 80.788 154.777 81.2963 151.224 81.9014C149.371 82.2158 147.981 81.7639 146.159 81.2803C156.577 79.6516 166.613 78.058 176.691 76.4826C176.978 76.8342 176.475 77.0865 176.247 77.3699L176.357 77.328Z" fill="#FFD441"/>
<path d="M38.6796 56.637C34.9668 57.2174 31.254 57.7978 27.5488 58.4266C26.0371 58.6877 27.2648 57.8513 26.7989 57.6019C22.9417 59.7417 18.3577 59.7146 14.0539 60.4866C12.6938 60.724 11.8338 60.9328 12.4851 62.1199C11.1441 61.7346 10.8715 60.9841 10.436 60.4325C10.0042 59.9051 10.9969 59.5516 11.7622 59.4815C14.9294 59.1351 18.0209 58.3048 21.3055 58.2128C22.8891 58.1635 24.6736 57.4136 26.458 57.1594C28.1667 56.9171 29.936 56.3183 31.5385 56.39C33.1031 56.4677 34.2738 56.012 35.5809 55.6837C37.0774 55.3259 37.744 56.114 38.6796 56.637Z" fill="#FFD441"/>
<path d="M183.513 33.7237C187.779 30.7267 192.981 31.2274 197.573 30.0634C197.667 30.1725 197.762 30.2817 197.857 30.3908C197.338 30.5463 196.777 30.6835 196.258 30.839C196.349 30.924 196.443 31.0331 196.496 31.124C201.986 28.7537 207.957 28.7127 213.784 27.7523C212.874 28.886 211.185 29.2492 209.787 29.4926C203.444 30.6327 197.061 31.7546 190.662 32.5318C189.025 32.7381 187.57 33.3621 185.945 33.3931C185.21 33.4088 184.536 33.5638 183.513 33.7237Z" fill="#FFD441"/>
<path d="M263.74 19.596C262.27 20.8669 260.197 21.5131 258.095 21.9657C255.352 22.5432 252.571 22.8788 249.843 23.3052C249.32 22.9407 250.923 22.7646 250.101 22.4717C249.73 22.3314 249.26 22.3057 248.862 22.7397C248.362 23.2641 247.407 23.6116 246.577 23.7661C243.516 24.2942 240.474 24.9433 237.364 25.1569L237.405 25.1751C238.61 24.1936 236.795 24.5021 236.337 24.0532C238 23.7684 239.508 23.4831 241.024 23.2462C246.059 22.4343 251.063 21.6768 256.098 20.8649C257.349 20.6694 258.341 20.5638 258.958 21.5332C258.618 20.3471 259.728 20.2479 260.834 20.1246C261.861 19.9889 262.842 19.8107 263.861 19.6266L263.74 19.596Z" fill="#FFD441"/>
<path d="M184.57 32.0461C182.486 34.1071 179.724 34.5636 177.106 34.7002C175.796 34.7564 174.742 34.9706 173.549 35.2811C171.98 35.675 170.302 35.863 168.673 36.1176C166.021 36.5322 163.407 36.9409 160.74 37.2586C168.083 33.8304 176.428 33.8394 184.57 32.0461Z" fill="#FFD441"/>
<path d="M133.618 83.4884C132.425 84.0468 131.281 84.6718 130.034 85.1394C129.485 85.3492 128.356 86.071 128.14 84.9397C128.068 84.48 127.413 84.756 127.091 84.9302C123.582 86.8172 119.456 86.7433 115.581 87.5227C113.584 87.9092 111.565 88.1505 109.364 88.4698C112.865 86.5344 116.483 85.8449 120.536 85.4591C122.719 85.2667 125.079 84.7242 127.379 84.2903C129.413 83.8979 131.501 83.5964 133.543 83.2524C133.592 83.319 133.603 83.3916 133.618 83.4884Z" fill="#FFD441"/>
<path d="M176.285 77.3639C178.865 76.2417 181.521 75.3556 184.575 75.2748C184.806 75.5114 183.893 75.6293 184.09 75.896C184.203 75.8782 184.362 75.9029 184.434 75.8669C185.81 74.9826 187.469 74.6736 189.219 74.4496C192.561 73.9768 195.853 73.4374 199.248 73.0554C197.069 74.0157 194.845 74.9335 192.356 75.3969C189.412 75.9315 186.442 76.5445 183.487 76.7586C181.108 76.9322 178.933 77.6688 176.641 77.9031C175.035 78.0551 176.391 77.5456 176.399 77.3461C176.357 77.3278 176.285 77.3639 176.285 77.3639Z" fill="#FFD441"/>
<path d="M140.081 39.9181C140.198 39.9245 140.357 39.9493 140.429 39.9132C143.457 38.4237 146.912 38.181 150.234 37.5873C153.898 36.9402 157.58 36.4141 161.672 35.7745C160.319 36.8039 159.455 37.9801 157.232 36.9148C158.311 37.8615 157.228 37.8821 156.622 37.9769C153.401 38.4803 150.219 38.9778 146.999 39.4812C144.801 39.8247 142.608 40.1924 140.414 40.5601C139.391 40.72 139.395 40.4963 139.899 39.9961C139.971 39.9601 140.043 39.924 140.081 39.9181Z" fill="#FFD441"/>
<path d="M221.195 69.699C224.756 68.6466 228.492 68.2114 232.178 67.7095C234.686 67.367 237.13 66.861 239.596 66.5003C240.164 66.4114 240.759 66.2441 241.126 66.6081C241.361 66.8688 241.895 67.058 241.717 67.408C241.539 67.7581 240.944 67.6776 240.566 67.7368C238.864 68.0275 237.16 68.294 235.493 68.5546C234.924 68.6435 234.436 68.7446 234.095 68.3022C233.803 67.9264 233.231 67.7431 232.561 68.1702C230.029 69.8548 226.768 69.5963 223.873 70.4454C223.68 69.955 224.563 69.8914 224.57 69.444C222.763 69.8009 221.407 71.054 219.27 71.041C219.603 70.6914 219.873 70.4263 220.176 70.131C220.543 69.9992 220.869 69.8491 221.195 69.699Z" fill="#FFD441"/>
<path d="M57.255 53.5598C58.0848 53.1575 58.6228 52.8751 59.1987 52.5867C57.0885 52.7431 55.5161 53.8565 53.4513 54.3032C55.3573 52.5923 55.3573 52.5923 58.1191 52.1358C62.5101 51.4246 66.9427 50.7317 71.3375 50.0447C72.2088 49.9085 73.4856 49.6345 71.9434 50.9415C72.7808 50.0917 74.4741 50.7441 74.7736 49.681C74.7736 49.681 75.1525 49.6218 75.2358 49.6584C75.5692 49.8046 75.6449 50.0406 75.3342 50.2875C74.7431 50.7269 74.0156 51.0389 73.148 51.1993C71.822 51.4066 70.3482 51.9097 69.1966 51.7427C67.3744 51.507 66.0407 52.1616 64.4684 52.5314C62.4453 52.9963 60.3086 53.2312 58.259 53.5268C58.0317 53.5624 57.7968 53.5495 57.255 53.5598Z" fill="#FFD441"/>
<path d="M246.574 66.4505C249.601 65.7046 252.265 64.1232 255.474 64.043C256.478 64.01 257.129 63.9577 258.008 63.622C258.558 63.4122 259.535 63.2098 259.835 63.3861C260.471 63.7328 260.751 63.5402 261.365 63.246C263.241 62.3331 265.127 62.4844 266.593 63.6681C259.925 64.7105 253.333 65.741 246.783 66.7897C246.688 66.6806 246.631 66.5655 246.574 66.4505Z" fill="#FFD441"/>
<path d="M12.3766 71.8538C13.9754 71.6534 14.4375 71.8786 13.6759 72.4686C13.2932 72.7516 12.7363 72.913 12.524 73.2932C12.9785 73.7179 13.8729 72.4874 14.2174 73.4498C14.7133 74.8844 14.5731 75.2285 12.3642 75.9952C11.9595 73.4062 11.5624 70.8656 11.1614 68.3008C10.9988 67.2604 10.8361 66.22 10.6773 65.2037C10.6243 64.865 10.4502 64.4956 11.3101 64.5347C11.6624 64.554 11.9693 64.5308 12.3026 64.9249C13.5032 66.398 13.1466 68.0897 13.6198 69.6269C13.8279 70.4619 13.8732 71.248 12.3766 71.8538Z" fill="#FFD441"/>
<path d="M215.883 71.4713C210.329 72.9345 204.548 72.9459 198.626 74.5408C201.081 72.6202 213.701 69.9285 217.039 70.4231C216.955 70.8823 215.914 70.9212 215.872 71.3987L215.883 71.4713Z" fill="#FFD441"/>
<path d="M110.746 44.9254C110.932 44.8716 111.113 44.7936 111.299 44.7398C115.467 43.0968 119.907 42.2044 124.48 41.6631C125.052 41.5985 125.806 41.2079 126.056 41.8133C126.302 42.3945 125.464 42.5006 124.915 42.7105C124.078 43.0644 123.184 43.3034 122.199 43.4573C119.126 43.9129 116.023 44.4227 112.958 44.9266C112.201 45.0451 111.439 45.1393 110.746 44.9254Z" fill="#FFD441"/>
<path d="M140.081 39.9183C140.009 39.9543 139.937 39.9903 139.903 40.0205C135.727 41.8629 131.026 41.8295 126.593 42.7703C127.022 40.7947 129.534 40.9721 131.193 40.6632C132.398 40.4252 133.64 40.1814 134.898 40.0344C136.959 39.8113 139.088 39.776 141.081 38.8695C141.096 38.9663 141.153 39.0814 141.168 39.1781C140.782 39.4369 140.429 39.6655 140.081 39.9183Z" fill="#FFD441"/>
<path d="M343.085 17.9501C342.71 15.5546 342.381 13.2017 342.011 10.8305C341.893 10.0804 342.844 9.95655 343.443 9.8134C344.303 9.60459 344.129 10.2268 344.132 10.4988C344.268 11.8657 344.711 13.2093 344.393 14.6472C344.328 14.9795 344.919 15.2837 344.991 15.7435C345.119 17.0619 345.157 17.056 343.085 17.9501Z" fill="#FFD441"/>
<path d="M132.019 84.9282C134.331 83.3276 136.407 82.4577 139.483 82.5221C140.65 82.538 142.571 81.9155 144.151 81.5942C144.901 81.4273 145.666 81.3573 145.935 81.8358C146.208 82.3385 145.135 82.4317 144.756 82.7388C144.518 82.9497 143.949 83.0385 143.533 83.1036C139.824 83.7082 136.149 84.2827 132.019 84.9282ZM141.101 82.9385C143.567 82.8256 143.567 82.8256 144.912 81.7478C143.453 82.3476 142.052 82.071 141.101 82.9385Z" fill="#FFD441"/>
<path d="M7.34542 100.005C7.31529 99.316 6.53506 98.5457 7.30803 98.0282C8.57735 97.2101 10.233 96.6291 11.722 95.9749C11.8319 95.9329 12.1956 96.0248 12.1994 96.049C11.7673 97.0089 13.3242 97.5339 13.0663 98.3674C12.8313 99.0982 10.9673 99.5879 10.6794 99.4842C9.36111 98.9962 8.47821 99.8035 7.34542 100.005Z" fill="#FFD441"/>
<path d="M96.5015 90.3566C98.2216 89.6911 100.033 89.1105 101.579 88.3236C102.874 87.6748 104.378 89.1005 105.401 87.7012C107.011 87.8213 108.576 86.9074 110.622 87.0834C106.283 89.8685 101.105 89.2652 96.5015 90.3566Z" fill="#FFD441"/>
<path d="M49.6706 53.4566C45.8475 56.062 40.4677 56.903 37.6647 55.3582C41.6806 54.7304 45.507 54.1322 49.6706 53.4566Z" fill="#FFD441"/>
<path d="M344.504 25.7841C345.182 25.9011 345.712 25.5703 346.258 25.3363C346.383 25.3912 346.508 25.446 346.515 25.4944C346.064 27.3248 347.465 28.8409 347.389 30.5879C347.378 31.0111 347.438 31.3982 346.953 31.7715C346.643 32.0183 346.37 32.2593 345.858 32.2153C345.347 32.1713 345.381 31.8933 345.385 31.6696C345.4 30.0312 344.192 28.5098 345.197 26.7416C345.344 26.4458 344.049 26.3509 344.613 25.7421L344.504 25.7841Z" fill="#FFD441"/>
<path d="M263.782 19.6142C267.044 19.1291 270.268 18.6499 273.723 18.1593C272.703 19.3349 271.627 19.6519 269.695 19.9539C267.233 20.3389 264.619 20.7475 262.114 21.3621C262.001 21.3798 261.879 21.3492 261.72 21.3245C262.3 20.8125 263.194 20.5736 263.914 20.2132C264.744 19.8108 264.111 19.7362 263.774 19.5658C263.74 19.5959 263.782 19.6142 263.782 19.6142Z" fill="#FFD441"/>
<path d="M27.152 100.082C25.39 101.721 23.1433 102.245 20.4914 102.412C18.3395 102.55 17.6465 101.593 16.7109 100.822C16.1352 100.366 17.3513 100.201 17.7833 99.9849C18.5751 99.5884 18.6053 100.03 18.5787 100.356C18.5065 101.384 19.3551 101.35 20.5978 101.107C22.7497 100.721 24.9546 100.425 27.152 100.082Z" fill="#FFD441"/>
<path d="M87.3257 90.9975C89.027 89.9632 91.1712 90.2725 93.0579 89.6801C94.6871 89.1775 96.5359 89.0868 98.3544 88.8025C96.4598 90.3381 91.9134 91.5445 86.7762 91.951C86.6361 91.5515 87.5757 91.3551 87.3939 90.9373C87.3977 90.9615 87.3257 90.9975 87.3257 90.9975Z" fill="#FFD441"/>
<path d="M158.967 34.3632C155.781 35.5801 152.311 35.726 148.803 36.3736C150.045 35.3861 153.99 33.8028 156.21 33.3566L156.168 33.3383C155.861 33.6094 155.316 33.8434 155.361 34.3817C157.062 33.8431 158.74 33.903 160.328 33.3821C159.839 33.7312 159.388 34.0743 158.899 34.4234C158.858 34.4051 158.967 34.3632 158.967 34.3632Z" fill="#FFD441"/>
<path d="M13.4572 83.4836C13.8858 81.508 11.7117 79.7657 14.2846 77.6036C15.6064 79.1073 15.3976 80.7511 15.5563 82.2631C15.5903 82.7288 14.4802 83.0758 13.4572 83.4836Z" fill="#FFD441"/>
<path d="M228.267 25.3147C226.127 26.7648 224.028 27.7374 221.137 27.6192C220.198 27.5678 219.186 28.296 218.053 28.25C220.808 26.2578 220.808 26.2578 228.267 25.3147Z" fill="#FFD441"/>
<path d="M237.36 25.1327C233.848 26.004 230.241 26.2703 226.646 26.8571C228.207 26.1669 229.393 25.0644 231.332 24.8108C231.787 24.7397 232.749 24.1926 232.583 25.1111C232.586 25.1353 233.105 25.2277 233.249 25.1556C234.833 24.3627 236.091 24.9593 237.409 25.1994C237.364 25.1569 237.36 25.1327 237.36 25.1327Z" fill="#FFD441"/>
<path d="M14.5169 88.0277C14.5589 86.8065 12.7369 85.5793 15.5634 84.5426C15.0521 84.0028 14.1994 85.0037 13.8018 84.4462C13.6011 84.1553 13.9875 83.8966 14.2225 83.6616C14.5218 83.3421 14.9007 83.2829 15.3705 83.3086C15.8402 83.3343 15.8439 83.6064 15.9159 83.8182C16.2642 84.8048 15.9267 85.8739 16.3167 86.8788C16.6271 87.6234 15.108 87.5883 14.5169 88.0277Z" fill="#FFD441"/>
<path d="M211.817 74.2634C210.082 74.5842 208.635 75.2566 207.112 75.9409C206.422 76.247 205.744 76.6257 204.816 76.6468C204.918 76.0607 205.752 75.6826 206.059 75.1636C205.661 74.854 204.827 75.7279 204.543 74.9047C206.93 74.5316 209.351 74.1284 211.746 73.8037C212.162 73.7385 211.757 74.1241 211.783 74.2935C211.745 74.2994 211.817 74.2634 211.817 74.2634Z" fill="#FFD441"/>
<path d="M16.427 99.9986C15.348 97.3167 15.5034 96.8215 17.6137 96.1694C18.8785 98.5495 18.6737 99.226 16.427 99.9986Z" fill="#FFD441"/>
<path d="M17.5921 92.058C16.5953 93.6267 19.4249 95.093 15.5225 96.4467C16.4396 95.3614 15.3827 94.8078 15.3754 94.0157C15.3832 93.0726 15.944 92.6875 17.5921 92.058Z" fill="#FFD441"/>
<path d="M20.5592 104.087C22.5254 103.755 24.4917 103.423 26.6474 103.061C25.7303 104.146 25.0823 105.214 23.2031 105.607L23.2448 105.625C22.6274 104.904 21.8699 104.279 20.5554 104.063L20.5592 104.087Z" fill="#FFD441"/>
<path d="M281.027 18.4551C282.311 17.238 283.622 16.6861 284.929 16.3578C286.047 16.0592 286.922 16.9387 288.229 16.8583C286.05 17.8186 283.713 17.7626 281.027 18.4551Z" fill="#FFD441"/>
<path d="M344.579 25.7721C344.004 25.0689 344.258 24.2112 344.019 23.4305C343.788 22.6982 344.83 22.4114 345.546 22.2747C346.448 22.0842 346.084 22.7359 346.167 23.0204C346.489 24.0855 346.89 25.163 344.542 25.778C344.504 25.784 344.579 25.7721 344.579 25.7721Z" fill="#FFD441"/>
<path d="M241.896 66.0662C244.665 65.9059 247.086 65.5027 249.499 65.0511C247.65 65.6375 245.942 66.3756 244.271 67.1078C242.816 67.7318 242.521 66.836 241.896 66.0662Z" fill="#FFD441"/>
<path d="M7.42869 101.034C7.54247 100.52 7.95549 100.183 8.58063 99.9611C8.91026 99.8352 9.22469 99.8604 9.40649 100.03C9.76631 100.346 9.74728 100.721 9.29637 101.064C8.59918 101.569 8.80739 102.157 8.98914 102.574C9.18222 103.065 8.71625 103.063 8.38662 103.189C7.61372 103.459 7.74263 103.042 7.70102 102.776C7.61024 102.195 7.51568 101.59 7.42869 101.034Z" fill="#FFD441"/>
<path d="M281.247 17.6276C280.565 17.9821 279.898 18.1855 279.617 18.6259C278.663 18.4777 279.697 17.8946 279.087 17.7173C278.652 17.6615 278.504 17.9572 278.341 18.1562C278.117 18.4638 278.216 19.0929 277.401 18.8484C276.912 18.7017 275.855 18.8918 275.95 18.2573C276.022 17.7255 276.708 17.643 277.348 17.5182C278.667 17.2625 279.917 17.3149 281.247 17.6276Z" fill="#FFD441"/>
<path d="M7.46995 59.0867C7.43944 59.8846 8.19313 60.7335 7.3899 61.0574C6.25327 61.4829 5.14342 60.8384 3.76831 60.4833C5.09059 60.0039 6.11357 59.5961 7.46995 59.0867Z" fill="#FFD441"/>
<path d="M353.373 55.4564C354.089 55.0718 354.805 54.6872 355.521 54.3026C355.949 54.0621 356.642 54.0281 356.745 54.1856C357.309 55.0641 357.855 54.3344 358.438 54.0944C358.764 53.9443 359.04 53.7276 359.529 53.8743C357.96 55.5076 355.536 55.143 353.373 55.4564Z" fill="#FFD441"/>
<path d="M205.274 79.0787C203.948 79.286 202.656 79.4632 201.333 79.6947C200.841 79.7717 200.462 79.8309 200.288 79.4615C200.114 79.0921 200.652 79.0576 200.902 78.9194C202.516 78.0722 203.921 78.373 205.274 79.0787Z" fill="#FFD441"/>
<path d="M345.483 19.137C345.369 19.8984 346.494 20.6396 345.1 21.4029C344.777 21.5772 343.804 21.8038 343.592 21.1925C343.247 20.23 343.592 19.4573 345.483 19.137Z" fill="#FFD441"/>
<path d="M311.908 55.1217C310.465 56.0662 309.203 57.1806 306.884 57.2456C307.851 55.4833 310.12 55.5995 311.908 55.1217Z" fill="#FFD441"/>
<path d="M242.659 72.937C242.69 72.8827 242.758 72.8224 242.826 72.7622C243.883 72.3243 244.936 71.8622 246.043 71.491C246.486 71.3473 247.073 70.6358 247.49 71.3143C247.759 71.7928 247.444 72.2634 246.558 72.5507C245.258 72.9273 243.966 72.8566 242.659 72.937Z" fill="#FFD441"/>
<path d="M165.199 82.9141C166.995 80.7495 166.995 80.7495 170.511 80.3982C169.135 81.5303 167.264 81.9716 165.199 82.9141Z" fill="#FFD441"/>
<path d="M0.533297 57.9155C4.32248 54.8444 4.32248 54.8444 6.94794 54.5083C6.34915 55.3951 4.62166 55.2686 3.9471 56.1672C3.33318 56.9572 2.04879 57.4307 0.533297 57.9155Z" fill="#FFD441"/>
<path d="M53.3644 53.0032C52.326 54.5536 50.3712 54.7105 48.5072 54.9523C49.9394 54.1831 51.0724 52.9897 53.3644 53.0032Z" fill="#FFD441"/>
<path d="M25.4316 101.739C26.8676 100.994 27.8376 100.495 28.7734 100.027C29.1334 99.8464 29.4517 99.648 29.9441 99.8188C30.5161 100.002 30.4289 100.437 30.5121 100.722C30.6068 101.079 29.868 101.07 29.4892 101.129C28.3147 101.313 27.1365 101.472 25.4316 101.739Z" fill="#FFD441"/>
<path d="M15.0428 90.8949C14.1336 90.5413 15.0165 89.734 14.6151 89.1523C14.3651 88.7947 15.6381 88.7445 16.104 88.746C17.1913 88.7495 16.6418 89.4551 16.7819 89.8546C16.8614 90.1148 16.5582 90.658 16.1718 90.4209C14.4294 89.4539 16.1261 91.37 15.0428 90.8949Z" fill="#FFD441"/>
<path d="M128.76 87.9162C127.988 87.4421 127.071 87.5358 126.067 87.8167C126.056 87.4962 126.177 87.279 126.783 87.1842C128.264 86.9774 129.738 86.7223 131.67 86.4202C130.45 87.0571 130.075 87.8842 128.76 87.9162Z" fill="#FFD441"/>
<path d="M241.404 18.4769C240.972 18.6932 240.502 18.9154 240.07 19.1316C239.309 18.4822 239.566 17.8966 240.794 17.556C241.54 17.3649 242.4 17.1561 243.234 17.2737C242.896 17.847 241.87 17.9827 241.404 18.4769Z" fill="#FFD441"/>
<path d="M215.883 71.471L215.875 71.4227C216.55 71.2677 217.251 71.0341 217.652 70.6243C218.577 69.5874 219.846 69.513 221.236 69.717C220.911 69.8671 220.585 70.0172 220.221 70.1732C219.422 70.5213 218.626 70.8935 217.785 71.2233C217.164 71.4692 216.542 71.715 215.883 71.471Z" fill="#FFD441"/>
<path d="M208.267 76.8757C207.202 77.7609 206.043 77.5455 204.687 77.3114C205.524 76.9574 206.255 76.6696 206.941 76.3393C208.423 75.6367 208.324 76.2471 208.195 76.9117C208.233 76.9058 208.267 76.8757 208.267 76.8757Z" fill="#FFD441"/>
<path d="M22.2785 106.892L22.3542 106.88C23.3771 106.72 23.843 107.217 24.6991 107.48C23.4033 108.129 22.0169 107.701 20.6945 108.428C20.9145 107.601 22.0965 107.466 22.2785 106.892Z" fill="#FFD441"/>
<path d="M116.606 93.0881C117.856 92.3969 118.701 91.8435 119.948 91.8717C120.22 91.8786 120.372 92.1028 120.235 92.2233C119.375 92.9279 118.148 92.7727 116.606 93.0881Z" fill="#FFD441"/>
<path d="M242.262 69.9006C242.668 70.0107 242.978 69.7638 243.274 69.6681C243.717 69.5244 244.236 69.121 244.588 69.3882C245.069 69.7344 244.122 69.8824 243.933 70.1599C243.558 70.7391 242.861 70.7489 242.22 70.6259C241.3 70.4476 242.489 70.1129 242.334 69.8645L242.262 69.9006Z" fill="#FFD441"/>
<path d="M204.342 76.101C203.236 76.2244 202.209 76.3601 201.065 76.4894C202.725 75.1889 202.876 75.1652 204.342 76.101Z" fill="#FFD441"/>
<path d="M1.2367 61.4246C2.14968 61.5545 2.90355 61.6598 3.06253 62.1802C3.14202 62.4405 2.53963 62.5594 2.1911 62.5643C1.10761 62.585 1.2176 62.0473 1.2367 61.4246Z" fill="#FFD441"/>
<path d="M23.6899 87.7174L26.8021 87.2309L25.9959 82.0735L27.2764 81.8734L30.768 86.6109L34.2537 86.066L29.5943 80.0353L29.5887 79.9997L32.0703 73.381L28.7269 73.9037L26.8622 79.2235L25.5817 79.4237L24.8144 74.5153L21.7022 75.0018L23.6899 87.7174ZM35.6907 85.8414L38.8029 85.3549L38.0245 80.3754L42.6483 79.6525L43.4267 84.6321L46.5389 84.1456L44.5512 71.43L41.439 71.9165L42.2341 77.0027L37.6102 77.7255L36.8151 72.6393L33.7029 73.1258L35.6907 85.8414ZM49.2024 83.7292L52.3324 83.2399L54.9456 76.7646C55.1795 76.1633 55.4212 75.3785 55.6735 74.4282L55.7091 74.4226L55.906 76.6145L56.8317 82.5366L59.9439 82.0501L57.9562 69.3345L54.8084 69.8265L52.2157 76.3169C51.9668 76.9388 51.7223 77.7057 51.4878 78.6533L51.4523 78.6589L51.2554 76.467L50.3268 70.5271L47.2146 71.0136L49.2024 83.7292ZM62.6099 81.6333L65.7221 81.1468L64.1513 71.0988L68.8285 70.3677L68.4115 67.7001L60.6221 68.9177L62.6099 81.6333ZM69.559 80.547L72.7601 80.0466L73.1078 77.2594L77.0736 76.6395L78.2731 79.1848L81.4743 78.6844L75.165 66.6443L71.8927 67.1559L69.559 80.547ZM73.4477 74.6557L73.7904 72.0697C73.8493 71.514 73.9132 70.757 73.9642 69.8017L73.9998 69.7961L74.8575 71.9029L75.9553 74.2637L73.4477 74.6557ZM87.2018 77.789L90.314 77.3025L89.6996 73.3722L91.8693 73.0331C93.0964 72.8412 94.0283 72.2765 94.6652 71.3389C95.302 70.4013 95.5264 69.2731 95.3235 67.9749C95.1233 66.6944 94.5681 65.7063 93.6755 65.0078C92.7829 64.3093 91.723 64.0559 90.4959 64.2477L85.2141 65.0734L87.2018 77.789ZM89.2826 70.7046L88.7433 67.2545L90.3261 67.0071C90.824 66.9293 91.2225 67.0309 91.5543 67.2888C91.8711 67.5672 92.0773 67.954 92.1579 68.4697C92.2413 69.0032 92.163 69.4345 91.9285 69.7991C91.694 70.1637 91.3278 70.3849 90.812 70.4655L89.2826 70.7046ZM98.3168 76.0515L106.533 74.7671L106.116 72.0995L101.012 72.8974L100.637 70.4965L104.514 69.8905L104.097 67.2229L100.22 67.8289L99.8583 65.517L104.713 64.758L104.296 62.0904L96.3291 63.3359L98.3168 76.0515ZM108.563 74.4497L111.676 73.9632L110.869 68.8058L112.15 68.6056L115.642 73.3432L119.127 72.7983L114.468 66.7676L114.462 66.732L116.944 60.1133L113.6 60.636L111.736 65.9558L110.455 66.156L109.688 61.2476L106.576 61.7341L108.563 74.4497ZM118.482 66.304C118.777 68.1891 119.647 69.6746 121.11 70.7577C122.572 71.8407 124.252 72.2157 126.173 71.9155C128.076 71.618 129.562 70.7482 130.624 69.2703C131.687 67.7925 132.079 66.1096 131.785 64.2245C131.498 62.3928 130.616 60.9456 129.159 59.8981C127.702 58.8507 126.022 58.4756 124.119 58.7731C122.198 59.0733 120.713 59.9432 119.644 61.3855C118.576 62.8277 118.196 64.4723 118.482 66.304ZM121.701 65.8008C121.54 64.7693 121.727 63.8657 122.291 63.0487C122.841 62.2522 123.603 61.7687 124.563 61.6185C125.524 61.4684 126.38 61.699 127.164 62.2869C127.933 62.8954 128.404 63.6962 128.566 64.7277C128.735 65.8125 128.539 66.7723 127.995 67.6044C127.433 68.4391 126.689 68.9199 125.728 69.07C124.768 69.2202 123.894 68.9924 123.122 68.3661C122.333 67.7426 121.871 66.8856 121.701 65.8008ZM134.273 70.4307L137.403 69.9414L136.899 64.1538C136.834 63.508 136.723 62.7967 136.565 62.0197L136.601 62.0142L137.646 64.0371L139.555 67.5098L142.223 67.0928L142.981 63.203C143.075 62.6417 143.213 61.8914 143.359 60.9578L143.394 60.9522L143.426 61.2751C143.442 61.4913 143.486 61.7758 143.542 62.1315C143.598 62.4872 143.648 62.8073 143.728 63.0863L145.014 68.7516L148.126 68.2651L145.107 55.7107L141.728 56.2389L140.718 61.8988C140.609 62.4807 140.504 63.2077 140.406 64.0974L140.371 64.103L139.402 62.1046L136.713 57.0229L133.334 57.5511L134.273 70.4307ZM150.314 67.923L158.53 66.6387L158.113 63.9711L153.009 64.7689L152.634 62.3681L156.511 61.762L156.094 59.0944L152.217 59.7005L151.856 57.3886L156.711 56.6296L156.294 53.962L148.327 55.2075L150.314 67.923ZM160.561 66.3213L163.673 65.8347L162.895 60.8552L167.519 60.1324L168.297 65.1119L171.409 64.6254L169.421 51.9098L166.309 52.3964L167.104 57.4826L162.48 58.2054L161.685 53.1192L158.573 53.6057L160.561 66.3213ZM176.966 61.0422C177.307 60.0779 177.496 58.9552 177.515 57.677C177.537 56.4165 177.472 55.1878 177.289 54.014L177.197 53.4272L179.74 53.0296L180.896 60.4278L176.966 61.0422ZM172.467 61.7455L173.27 66.8851L176.133 66.4375L175.744 63.9477L183.089 62.7996L183.478 65.2893L186.235 64.8584L185.431 59.7188L184.009 59.9413L182.435 49.8755L173.828 51.221L174.298 54.2265C174.742 57.072 174.558 59.5057 173.783 61.5398L172.467 61.7455ZM185.867 55.7702C186.162 57.6553 187.032 59.1408 188.494 60.2238C189.957 61.3069 191.637 61.6819 193.558 61.3817C195.461 61.0842 196.946 60.2143 198.009 58.7365C199.071 57.2587 199.464 55.5758 199.169 53.6907C198.883 51.859 198.001 50.4118 196.544 49.3643C195.086 48.3168 193.406 47.9418 191.503 48.2393C189.583 48.5395 188.097 49.4094 187.029 50.8517C185.961 52.2939 185.581 53.9384 185.867 55.7702ZM189.086 55.267C188.925 54.2355 189.111 53.3319 189.676 52.5149C190.225 51.7184 190.988 51.2348 191.948 51.0847C192.909 50.9346 193.764 51.1652 194.549 51.7531C195.318 52.3616 195.789 53.1624 195.95 54.1939C196.12 55.2787 195.924 56.2385 195.38 57.0705C194.818 57.9053 194.073 58.3861 193.113 58.5362C192.153 58.6864 191.279 58.4586 190.507 57.8323C189.717 57.2088 189.255 56.3518 189.086 55.267ZM202.155 59.8191L206.833 59.0879C208.22 58.8711 209.328 58.388 210.156 57.621C210.968 56.8746 211.281 55.842 211.078 54.5437C210.98 53.9213 210.711 53.3622 210.307 52.8787C209.904 52.3953 209.347 52.0996 208.638 51.9919L208.633 51.9563C209.053 51.6173 209.351 51.1882 209.54 50.6486C209.711 50.1117 209.772 49.5737 209.686 49.0224C209.519 47.9554 208.982 47.2012 208.111 46.7545C207.24 46.3077 206.143 46.1694 204.845 46.3723L200.168 47.1035L202.155 59.8191ZM204.05 51.5432L203.697 49.2846L205.244 49.0427C205.635 48.9816 205.937 49.0438 206.163 49.2088C206.392 49.3917 206.537 49.624 206.587 49.9441C206.64 50.282 206.578 50.5832 206.433 50.8244C206.274 51.0862 206.006 51.2374 205.65 51.293L204.05 51.5432ZM204.851 56.665L204.439 54.0329L206.324 53.7382C206.751 53.6715 207.108 53.7432 207.379 53.956C207.631 54.1716 207.803 54.4545 207.861 54.828C207.922 55.2192 207.848 55.5588 207.655 55.8439C207.445 56.1318 207.145 56.3063 206.718 56.373L204.851 56.665ZM212.161 58.2549L215.362 57.7545L215.71 54.9674L219.676 54.3474L220.875 56.8927L224.076 56.3923L217.767 44.3523L214.495 44.8638L212.161 58.2549ZM216.05 52.3636L216.393 49.7777C216.451 49.2219 216.515 48.465 216.566 47.5096L216.602 47.5041L217.46 49.6109L218.557 51.9716L216.05 52.3636ZM225.358 56.192L228.47 55.7054L227.692 50.7259L232.316 50.0031L233.094 54.9826L236.206 54.4961L234.218 41.7805L231.106 42.2671L231.901 47.3533L227.278 48.0761L226.482 42.9899L223.37 43.4764L225.358 56.192ZM237.482 54.2966L240.684 53.7962L241.031 51.0091L244.997 50.3891L246.197 52.9344L249.398 52.434L243.089 40.394L239.816 40.9055L237.482 54.2966ZM241.371 48.4053L241.714 45.8193C241.773 45.2636 241.837 44.5066 241.888 43.5513L241.923 43.5457L242.781 45.6525L243.879 48.0133L241.371 48.4053ZM255.125 51.5386L258.238 51.0521L257.459 46.0726L262.083 45.3498L262.861 50.3293L265.974 49.8428L263.986 37.1272L260.874 37.6137L261.669 42.6999L257.045 43.4228L256.25 38.3365L253.138 38.823L255.125 51.5386ZM268.637 49.4264L271.767 48.9371L274.38 42.4618C274.614 41.8605 274.856 41.0757 275.108 40.1254L275.144 40.1198L275.341 42.3117L276.266 48.2338L279.379 47.7473L277.391 35.0317L274.243 35.5238L271.65 42.0141C271.401 42.636 271.157 43.403 270.922 44.3505L270.887 44.3561L270.69 42.1642L269.761 36.2243L266.649 36.7109L268.637 49.4264ZM281.554 46.642C282.561 47.1404 283.572 47.3104 284.603 47.1492C285.137 47.0658 285.603 46.9018 285.996 46.6216C286.393 46.3593 286.704 46.0192 286.948 45.5984C287.195 45.1955 287.388 44.8009 287.513 44.4352C287.638 44.0695 287.772 43.6477 287.878 43.1575L290.14 33.0387L286.868 33.5502L286.02 38.3831C285.901 39.0211 285.828 39.5974 285.786 40.1504L285.751 40.156L284.79 38.5571L281.96 34.3175L278.545 34.8513L284.958 43.7051C284.849 44.1775 284.545 44.4437 284.047 44.5216C283.62 44.5883 283.106 44.45 282.542 44.101L281.554 46.642ZM297.71 44.8817L302.387 44.1505C303.774 43.9337 304.883 43.4506 305.71 42.6836C306.523 41.9372 306.835 40.9046 306.632 39.6064C306.535 38.9839 306.265 38.4248 305.862 37.9414C305.458 37.4579 304.902 37.1623 304.193 37.0545L304.187 37.0189C304.608 36.6799 304.905 36.2508 305.094 35.7112C305.265 35.1743 305.327 34.6363 305.241 34.085C305.074 33.018 304.537 32.2638 303.665 31.8171C302.794 31.3703 301.697 31.232 300.399 31.4349L295.722 32.1661L297.71 44.8817ZM299.604 36.6058L299.251 34.3472L300.798 34.1053C301.19 34.0442 301.491 34.1064 301.717 34.2714C301.946 34.4543 302.092 34.6866 302.142 35.0067C302.195 35.3446 302.132 35.6458 301.988 35.887C301.828 36.1488 301.561 36.3 301.205 36.3556L299.604 36.6058ZM300.405 41.7276L299.993 39.0955L301.879 38.8008C302.305 38.7341 302.663 38.8058 302.933 39.0186C303.185 39.2342 303.357 39.5171 303.415 39.8906C303.476 40.2818 303.402 40.6214 303.21 40.9065C303 41.1944 302.699 41.3689 302.272 41.4357L300.405 41.7276ZM309.224 43.0817L324.963 40.6213L322.975 27.9058L319.863 28.3923L321.437 38.458L318.235 38.9584L316.662 28.8927L313.55 29.3792L315.123 39.445L311.922 39.9454L310.349 29.8796L307.236 30.3661L309.224 43.0817ZM326.383 38.614C328.082 39.6965 329.854 40.0754 331.704 39.7862C333.66 39.4804 335.181 38.605 336.249 37.1627C337.299 35.7233 337.689 34.0226 337.389 32.1019C337.1 30.2524 336.254 28.7997 334.885 27.7383C333.499 26.6797 331.801 26.3075 329.792 26.6216C327.693 26.9497 326.139 27.8484 325.125 29.2823L326.932 31.4047C327.869 30.2925 328.933 29.6344 330.106 29.4509C330.996 29.3119 331.779 29.4264 332.456 29.7942C333.115 30.1649 333.6 30.7084 333.895 31.4275L328.631 32.2504L329.02 34.7402L334.266 33.92C334.205 34.6948 333.911 35.3784 333.415 35.9297C332.9 36.4838 332.189 36.8318 331.282 36.9736C329.966 37.1793 328.741 36.9154 327.565 36.1519L326.383 38.614Z" fill="white"/>
<path d="M23.6899 87.7174L26.8021 87.2309L25.9959 82.0735L27.2764 81.8734L30.768 86.6109L34.2537 86.066L29.5943 80.0353L29.5887 79.9997L32.0703 73.381L28.7269 73.9037L26.8622 79.2235L25.5817 79.4237L24.8144 74.5153L21.7022 75.0018L23.6899 87.7174ZM35.6907 85.8414L38.8029 85.3549L38.0245 80.3754L42.6483 79.6525L43.4267 84.6321L46.5389 84.1456L44.5512 71.43L41.439 71.9165L42.2341 77.0027L37.6102 77.7255L36.8151 72.6393L33.7029 73.1258L35.6907 85.8414ZM49.2024 83.7292L52.3324 83.2399L54.9456 76.7646C55.1795 76.1633 55.4212 75.3785 55.6735 74.4282L55.7091 74.4226L55.906 76.6145L56.8317 82.5366L59.9439 82.0501L57.9562 69.3345L54.8084 69.8265L52.2157 76.3169C51.9668 76.9388 51.7223 77.7057 51.4878 78.6533L51.4523 78.6589L51.2554 76.467L50.3268 70.5271L47.2146 71.0136L49.2024 83.7292ZM62.6099 81.6333L65.7221 81.1468L64.1513 71.0988L68.8285 70.3677L68.4115 67.7001L60.6221 68.9177L62.6099 81.6333ZM69.559 80.547L72.7601 80.0466L73.1078 77.2594L77.0736 76.6395L78.2731 79.1848L81.4743 78.6844L75.165 66.6443L71.8927 67.1559L69.559 80.547ZM73.4477 74.6557L73.7904 72.0697C73.8493 71.514 73.9132 70.757 73.9642 69.8017L73.9998 69.7961L74.8575 71.9029L75.9553 74.2637L73.4477 74.6557ZM87.2018 77.789L90.314 77.3025L89.6996 73.3722L91.8693 73.0331C93.0964 72.8412 94.0283 72.2765 94.6652 71.3389C95.302 70.4013 95.5264 69.2731 95.3235 67.9749C95.1233 66.6944 94.5681 65.7063 93.6755 65.0078C92.7829 64.3093 91.723 64.0559 90.4959 64.2477L85.2141 65.0734L87.2018 77.789ZM89.2826 70.7046L88.7433 67.2545L90.3261 67.0071C90.824 66.9293 91.2225 67.0309 91.5543 67.2888C91.8711 67.5672 92.0773 67.954 92.1579 68.4697C92.2413 69.0032 92.163 69.4345 91.9285 69.7991C91.694 70.1637 91.3278 70.3849 90.812 70.4655L89.2826 70.7046ZM98.3168 76.0515L106.533 74.7671L106.116 72.0995L101.012 72.8974L100.637 70.4965L104.514 69.8905L104.097 67.2229L100.22 67.8289L99.8583 65.517L104.713 64.758L104.296 62.0904L96.3291 63.3359L98.3168 76.0515ZM108.563 74.4497L111.676 73.9632L110.869 68.8058L112.15 68.6056L115.642 73.3432L119.127 72.7983L114.468 66.7676L114.462 66.732L116.944 60.1133L113.6 60.636L111.736 65.9558L110.455 66.156L109.688 61.2476L106.576 61.7341L108.563 74.4497ZM118.482 66.304C118.777 68.1891 119.647 69.6746 121.11 70.7577C122.572 71.8407 124.252 72.2157 126.173 71.9155C128.076 71.618 129.562 70.7482 130.624 69.2703C131.687 67.7925 132.079 66.1096 131.785 64.2245C131.498 62.3928 130.616 60.9456 129.159 59.8981C127.702 58.8507 126.022 58.4756 124.119 58.7731C122.198 59.0733 120.713 59.9432 119.644 61.3855C118.576 62.8277 118.196 64.4723 118.482 66.304ZM121.701 65.8008C121.54 64.7693 121.727 63.8657 122.291 63.0487C122.841 62.2522 123.603 61.7687 124.563 61.6185C125.524 61.4684 126.38 61.699 127.164 62.2869C127.933 62.8954 128.404 63.6962 128.566 64.7277C128.735 65.8125 128.539 66.7723 127.995 67.6044C127.433 68.4391 126.689 68.9199 125.728 69.07C124.768 69.2202 123.894 68.9924 123.122 68.3661C122.333 67.7426 121.871 66.8856 121.701 65.8008ZM134.273 70.4307L137.403 69.9414L136.899 64.1538C136.834 63.508 136.723 62.7967 136.565 62.0197L136.601 62.0142L137.646 64.0371L139.555 67.5098L142.223 67.0928L142.981 63.203C143.075 62.6417 143.213 61.8914 143.359 60.9578L143.394 60.9522L143.426 61.2751C143.442 61.4913 143.486 61.7758 143.542 62.1315C143.598 62.4872 143.648 62.8073 143.728 63.0863L145.014 68.7516L148.126 68.2651L145.107 55.7107L141.728 56.2389L140.718 61.8988C140.609 62.4807 140.504 63.2077 140.406 64.0974L140.371 64.103L139.402 62.1046L136.713 57.0229L133.334 57.5511L134.273 70.4307ZM150.314 67.923L158.53 66.6387L158.113 63.9711L153.009 64.7689L152.634 62.3681L156.511 61.762L156.094 59.0944L152.217 59.7005L151.856 57.3886L156.711 56.6296L156.294 53.962L148.327 55.2075L150.314 67.923ZM160.561 66.3213L163.673 65.8347L162.895 60.8552L167.519 60.1324L168.297 65.1119L171.409 64.6254L169.421 51.9098L166.309 52.3964L167.104 57.4826L162.48 58.2054L161.685 53.1192L158.573 53.6057L160.561 66.3213ZM176.966 61.0422C177.307 60.0779 177.496 58.9552 177.515 57.677C177.537 56.4165 177.472 55.1878 177.289 54.014L177.197 53.4272L179.74 53.0296L180.896 60.4278L176.966 61.0422ZM172.467 61.7455L173.27 66.8851L176.133 66.4375L175.744 63.9477L183.089 62.7996L183.478 65.2893L186.235 64.8584L185.431 59.7188L184.009 59.9413L182.435 49.8755L173.828 51.221L174.298 54.2265C174.742 57.072 174.558 59.5057 173.783 61.5398L172.467 61.7455ZM185.867 55.7702C186.162 57.6553 187.032 59.1408 188.494 60.2238C189.957 61.3069 191.637 61.6819 193.558 61.3817C195.461 61.0842 196.946 60.2143 198.009 58.7365C199.071 57.2587 199.464 55.5758 199.169 53.6907C198.883 51.859 198.001 50.4118 196.544 49.3643C195.086 48.3168 193.406 47.9418 191.503 48.2393C189.583 48.5395 188.097 49.4094 187.029 50.8517C185.961 52.2939 185.581 53.9384 185.867 55.7702ZM189.086 55.267C188.925 54.2355 189.111 53.3319 189.676 52.5149C190.225 51.7184 190.988 51.2348 191.948 51.0847C192.909 50.9346 193.764 51.1652 194.549 51.7531C195.318 52.3616 195.789 53.1624 195.95 54.1939C196.12 55.2787 195.924 56.2385 195.38 57.0705C194.818 57.9053 194.073 58.3861 193.113 58.5362C192.153 58.6864 191.279 58.4586 190.507 57.8323C189.717 57.2088 189.255 56.3518 189.086 55.267ZM202.155 59.8191L206.833 59.0879C208.22 58.8711 209.328 58.388 210.156 57.621C210.968 56.8746 211.281 55.842 211.078 54.5437C210.98 53.9213 210.711 53.3622 210.307 52.8787C209.904 52.3953 209.347 52.0996 208.638 51.9919L208.633 51.9563C209.053 51.6173 209.351 51.1882 209.54 50.6486C209.711 50.1117 209.772 49.5737 209.686 49.0224C209.519 47.9554 208.982 47.2012 208.111 46.7545C207.24 46.3077 206.143 46.1694 204.845 46.3723L200.168 47.1035L202.155 59.8191ZM204.05 51.5432L203.697 49.2846L205.244 49.0427C205.635 48.9816 205.937 49.0438 206.163 49.2088C206.392 49.3917 206.537 49.624 206.587 49.9441C206.64 50.282 206.578 50.5832 206.433 50.8244C206.274 51.0862 206.006 51.2374 205.65 51.293L204.05 51.5432ZM204.851 56.665L204.439 54.0329L206.324 53.7382C206.751 53.6715 207.108 53.7432 207.379 53.956C207.631 54.1716 207.803 54.4545 207.861 54.828C207.922 55.2192 207.848 55.5588 207.655 55.8439C207.445 56.1318 207.145 56.3063 206.718 56.373L204.851 56.665ZM212.161 58.2549L215.362 57.7545L215.71 54.9674L219.676 54.3474L220.875 56.8927L224.076 56.3923L217.767 44.3523L214.495 44.8638L212.161 58.2549ZM216.05 52.3636L216.393 49.7777C216.451 49.2219 216.515 48.465 216.566 47.5096L216.602 47.5041L217.46 49.6109L218.557 51.9716L216.05 52.3636ZM225.358 56.192L228.47 55.7054L227.692 50.7259L232.316 50.0031L233.094 54.9826L236.206 54.4961L234.218 41.7805L231.106 42.2671L231.901 47.3533L227.278 48.0761L226.482 42.9899L223.37 43.4764L225.358 56.192ZM237.482 54.2966L240.684 53.7962L241.031 51.0091L244.997 50.3891L246.197 52.9344L249.398 52.434L243.089 40.394L239.816 40.9055L237.482 54.2966ZM241.371 48.4053L241.714 45.8193C241.773 45.2636 241.837 44.5066 241.888 43.5513L241.923 43.5457L242.781 45.6525L243.879 48.0133L241.371 48.4053ZM255.125 51.5386L258.238 51.0521L257.459 46.0726L262.083 45.3498L262.861 50.3293L265.974 49.8428L263.986 37.1272L260.874 37.6137L261.669 42.6999L257.045 43.4228L256.25 38.3365L253.138 38.823L255.125 51.5386ZM268.637 49.4264L271.767 48.9371L274.38 42.4618C274.614 41.8605 274.856 41.0757 275.108 40.1254L275.144 40.1198L275.341 42.3117L276.266 48.2338L279.379 47.7473L277.391 35.0317L274.243 35.5238L271.65 42.0141C271.401 42.636 271.157 43.403 270.922 44.3505L270.887 44.3561L270.69 42.1642L269.761 36.2243L266.649 36.7109L268.637 49.4264ZM281.554 46.642C282.561 47.1404 283.572 47.3104 284.603 47.1492C285.137 47.0658 285.603 46.9018 285.996 46.6216C286.393 46.3593 286.704 46.0192 286.948 45.5984C287.195 45.1955 287.388 44.8009 287.513 44.4352C287.638 44.0695 287.772 43.6477 287.878 43.1575L290.14 33.0387L286.868 33.5502L286.02 38.3831C285.901 39.0211 285.828 39.5974 285.786 40.1504L285.751 40.156L284.79 38.5571L281.96 34.3175L278.545 34.8513L284.958 43.7051C284.849 44.1775 284.545 44.4437 284.047 44.5216C283.62 44.5883 283.106 44.45 282.542 44.101L281.554 46.642ZM297.71 44.8817L302.387 44.1505C303.774 43.9337 304.883 43.4506 305.71 42.6836C306.523 41.9372 306.835 40.9046 306.632 39.6064C306.535 38.9839 306.265 38.4248 305.862 37.9414C305.458 37.4579 304.902 37.1623 304.193 37.0545L304.187 37.0189C304.608 36.6799 304.905 36.2508 305.094 35.7112C305.265 35.1743 305.327 34.6363 305.241 34.085C305.074 33.018 304.537 32.2638 303.665 31.8171C302.794 31.3703 301.697 31.232 300.399 31.4349L295.722 32.1661L297.71 44.8817ZM299.604 36.6058L299.251 34.3472L300.798 34.1053C301.19 34.0442 301.491 34.1064 301.717 34.2714C301.946 34.4543 302.092 34.6866 302.142 35.0067C302.195 35.3446 302.132 35.6458 301.988 35.887C301.828 36.1488 301.561 36.3 301.205 36.3556L299.604 36.6058ZM300.405 41.7276L299.993 39.0955L301.879 38.8008C302.305 38.7341 302.663 38.8058 302.933 39.0186C303.185 39.2342 303.357 39.5171 303.415 39.8906C303.476 40.2818 303.402 40.6214 303.21 40.9065C303 41.1944 302.699 41.3689 302.272 41.4357L300.405 41.7276ZM309.224 43.0817L324.963 40.6213L322.975 27.9058L319.863 28.3923L321.437 38.458L318.235 38.9584L316.662 28.8927L313.55 29.3792L315.123 39.445L311.922 39.9454L310.349 29.8796L307.236 30.3661L309.224 43.0817ZM326.383 38.614C328.082 39.6965 329.854 40.0754 331.704 39.7862C333.66 39.4804 335.181 38.605 336.249 37.1627C337.299 35.7233 337.689 34.0226 337.389 32.1019C337.1 30.2524 336.254 28.7997 334.885 27.7383C333.499 26.6797 331.801 26.3075 329.792 26.6216C327.693 26.9497 326.139 27.8484 325.125 29.2823L326.932 31.4047C327.869 30.2925 328.933 29.6344 330.106 29.4509C330.996 29.3119 331.779 29.4264 332.456 29.7942C333.115 30.1649 333.6 30.7084 333.895 31.4275L328.631 32.2504L329.02 34.7402L334.266 33.92C334.205 34.6948 333.911 35.3784 333.415 35.9297C332.9 36.4838 332.189 36.8318 331.282 36.9736C329.966 37.1793 328.741 36.9154 327.565 36.1519L326.383 38.614Z" fill="#FFD441"/>
</svg>
